<?xml version="1.0" encoding="utf-8"?><svg xmlns="http://www.w3.org/2000/svg" xmlns:xlink="http://www.w3.org/1999/xlink"><symbol fill="none" viewBox="0 0 18 20" id="Arrow-top" xmlns="http://www.w3.org/2000/svg"><path fill-rule="evenodd" clip-rule="evenodd" d="M8.215.325a1.111 1.111 0 0 1 1.571 0l7.071 7.071a1.111 1.111 0 1 1-1.571 1.572L10.11 3.794v15.095a1.111 1.111 0 0 1-2.222 0V3.794L2.715 8.968a1.111 1.111 0 1 1-1.571-1.572l7.07-7.07Z" fill="#FF5F28"/></symbol><symbol fill="none" viewBox="0 0 24 24" id="Icon-close" xmlns="http://www.w3.org/2000/svg"><path d="m8.465 15.535 7.07-7.07M8.465 8.465l7.07 7.07" stroke="#E5E5EA" stroke-width="1.5" stroke-linecap="round"/></symbol><symbol fill="none" viewBox="0 0 40 40" id="Pause" xmlns="http://www.w3.org/2000/svg"><g filter="url(#ka)"><circle cx="20" cy="20" r="20" fill="#E5E5EA" fill-opacity=".2"/><circle cx="20" cy="20" r="19.456" stroke="#E5E5EA" stroke-width="1.087"/></g><rect x="16" y="13" width="2" height="14" rx="1" fill="#E5E5EA"/><rect x="22" y="13" width="2" height="14" rx="1" fill="#E5E5EA"/><defs><filter id="ka" x="-1.087" y="-1.087" width="42.175" height="42.175" filterUnits="userSpaceOnUse" color-interpolation-filters="sRGB"><feFlood flood-opacity="0" result="BackgroundImageFix"/><feGaussianBlur in="BackgroundImageFix" stdDeviation=".544"/><feComposite in2="SourceAlpha" operator="in" result="effect1_backgroundBlur_223_48585"/><feBlend in="SourceGraphic" in2="effect1_backgroundBlur_223_48585" result="shape"/></filter></defs></symbol><symbol fill="none" viewBox="0 0 40 40" id="Play" xmlns="http://www.w3.org/2000/svg"><g filter="url(#ma)"><circle cx="20" cy="20" r="20" fill="#E5E5EA" fill-opacity=".2"/><circle cx="20" cy="20" r="19.456" stroke="#E5E5EA" stroke-width="1.087"/></g><path d="M26.37 19.058a1.087 1.087 0 0 1 0 1.884l-8.74 5.045a1.087 1.087 0 0 1-1.63-.942v-10.09c0-.837.906-1.36 1.63-.942l8.74 5.045Z" fill="#E5E5EA"/><defs><filter id="ma" x="-1.087" y="-1.087" width="42.175" height="42.175" filterUnits="userSpaceOnUse" color-interpolation-filters="sRGB"><feFlood flood-opacity="0" result="BackgroundImageFix"/><feGaussianBlur in="BackgroundImageFix" stdDeviation=".544"/><feComposite in2="SourceAlpha" operator="in" result="effect1_backgroundBlur_223_48583"/><feBlend in="SourceGraphic" in2="effect1_backgroundBlur_223_48583" result="shape"/></filter></defs></symbol><symbol viewBox="0 0 100 100" id="_sprite" xmlns="http://www.w3.org/2000/svg"/><symbol fill="none" viewBox="0 0 10 7" id="arrow" xmlns="http://www.w3.org/2000/svg"><path d="m.81 1.188 4.127 4.126 4.126-4.127" stroke="#E5E5EA" stroke-width="1.5" stroke-linecap="round" stroke-linejoin="round"/></symbol><symbol fill="none" viewBox="0 0 824 900" id="body-shape" xmlns="http://www.w3.org/2000/svg"><g style="mix-blend-mode:color-dodge" opacity=".1"><g filter="url(#da)"><ellipse cx="378.926" cy="483.999" rx="196.296" ry="190.019" transform="rotate(101.685 378.926 483.999)" fill="#E64AFF"/></g><g filter="url(#db)"><ellipse cx="398.148" cy="479.369" rx="177.424" ry="125.288" transform="rotate(101.685 398.148 479.369)" fill="#7574CC"/></g><g filter="url(#dc)"><ellipse cx="375.064" cy="583.872" rx="177.424" ry="104.509" transform="rotate(59.87 375.064 583.872)" fill="#6E4092"/></g><g filter="url(#dd)"><ellipse cx="405.831" cy="342.053" rx="232.227" ry="73.642" transform="rotate(119.926 405.831 342.053)" fill="#A838DD"/></g><g style="mix-blend-mode:color-burn" filter="url(#de)"><ellipse cx="431.494" cy="500.671" rx="149.829" ry="70.841" transform="rotate(101.685 431.494 500.671)" fill="#340D75"/></g></g><defs><filter id="da" x="103.731" y="203.044" width="550.389" height="561.91" filterUnits="userSpaceOnUse" color-interpolation-filters="sRGB"><feFlood flood-opacity="0" result="BackgroundImageFix"/><feBlend in="SourceGraphic" in2="BackgroundImageFix" result="shape"/><feGaussianBlur stdDeviation="42.437" result="effect1_foregroundBlur_408_110898"/></filter><filter id="db" x="185.394" y="218.881" width="425.507" height="520.975" filterUnits="userSpaceOnUse" color-interpolation-filters="sRGB"><feFlood flood-opacity="0" result="BackgroundImageFix"/><feBlend in="SourceGraphic" in2="BackgroundImageFix" result="shape"/><feGaussianBlur stdDeviation="42.437" result="effect1_foregroundBlur_408_110898"/></filter><filter id="dc" x="92.171" y="265.657" width="565.786" height="636.43" filterUnits="userSpaceOnUse" color-interpolation-filters="sRGB"><feFlood flood-opacity="0" result="BackgroundImageFix"/><feBlend in="SourceGraphic" in2="BackgroundImageFix" result="shape"/><feGaussianBlur stdDeviation="78" result="effect1_foregroundBlur_408_110898"/></filter><filter id="dd" x="117.056" y="-19.053" width="577.55" height="722.212" filterUnits="userSpaceOnUse" color-interpolation-filters="sRGB"><feFlood flood-opacity="0" result="BackgroundImageFix"/><feBlend in="SourceGraphic" in2="BackgroundImageFix" result="shape"/><feGaussianBlur stdDeviation="78.24" result="effect1_foregroundBlur_408_110898"/></filter><filter id="de" x="199.276" y="196.757" width="464.437" height="607.829" filterUnits="userSpaceOnUse" color-interpolation-filters="sRGB"><feFlood flood-opacity="0" result="BackgroundImageFix"/><feBlend in="SourceGraphic" in2="BackgroundImageFix" result="shape"/><feGaussianBlur stdDeviation="78.24" result="effect1_foregroundBlur_408_110898"/></filter></defs></symbol><symbol fill="none" viewBox="0 0 312 50" id="border-accent" xmlns="http://www.w3.org/2000/svg"><rect x=".5" y=".5" width="311" height="49" rx="13.5" fill="transparent"/><rect x=".5" y=".5" width="311" height="49" rx="13.5" stroke="url(#ea)"/><defs><linearGradient id="ea" x1="312" y1="0" x2="-7.286" y2="37.324" gradientUnits="userSpaceOnUse"><stop stop-color="#F18A03"/><stop offset="1" stop-color="#E9531A"/></linearGradient></defs></symbol><symbol fill="none" viewBox="0 0 1440 691" id="dots" xmlns="http://www.w3.org/2000/svg"><g opacity=".3" fill="#fff"><circle cx="25" cy=".044" r="1"/><circle cx="25" cy="50.044" r="1"/><circle cx="25" cy="100.044" r="1"/><circle cx="25" cy="150.044" r="1"/><circle cx="25" cy="200.044" r="1"/><circle cx="25" cy="250.044" r="1"/><circle cx="25" cy="300.044" r="1"/><circle cx="25" cy="350.044" r="1"/><circle cx="25" cy="400.044" r="1"/><circle cx="25" cy="450.044" r="1"/><circle cx="25" cy="500.044" r="1"/><circle cx="25" cy="550.044" r="1"/><circle cx="25" cy="600.044" r="1"/><circle cx="25" cy="650.044" r="1"/><circle cx="73" cy=".044" r="1"/><circle cx="73" cy="50.044" r="1"/><circle cx="73" cy="100.044" r="1"/><circle cx="73" cy="150.044" r="1"/><circle cx="73" cy="200.044" r="1"/><circle cx="73" cy="250.044" r="1"/><circle cx="73" cy="300.044" r="1"/><circle cx="73" cy="350.044" r="1"/><circle cx="73" cy="400.044" r="1"/><circle cx="73" cy="450.044" r="1"/><circle cx="73" cy="500.044" r="1"/><circle cx="73" cy="550.044" r="1"/><circle cx="73" cy="600.044" r="1"/><circle cx="73" cy="650.044" r="1"/><circle cx="121" cy=".044" r="1"/><circle cx="121" cy="50.044" r="1"/><circle cx="121" cy="100.044" r="1"/><circle cx="121" cy="150.044" r="1"/><circle cx="121" cy="200.044" r="1"/><circle cx="121" cy="250.044" r="1"/><circle cx="121" cy="300.044" r="1"/><circle cx="121" cy="350.044" r="1"/><circle cx="121" cy="400.044" r="1"/><circle cx="121" cy="450.044" r="1"/><circle cx="121" cy="500.044" r="1"/><circle cx="121" cy="550.044" r="1"/><circle cx="121" cy="600.044" r="1"/><circle cx="121" cy="650.044" r="1"/><circle cx="169" cy=".044" r="1"/><circle cx="169" cy="50.044" r="1"/><circle cx="169" cy="100.044" r="1"/><circle cx="169" cy="150.044" r="1"/><circle cx="169" cy="200.044" r="1"/><circle cx="169" cy="250.044" r="1"/><circle cx="169" cy="300.044" r="1"/><circle cx="169" cy="350.044" r="1"/><circle cx="169" cy="400.044" r="1"/><circle cx="169" cy="450.044" r="1"/><circle cx="169" cy="500.044" r="1"/><circle cx="169" cy="550.044" r="1"/><circle cx="169" cy="600.044" r="1"/><circle cx="169" cy="650.044" r="1"/><circle cx="217" cy=".044" r="1"/><circle cx="217" cy="50.044" r="1"/><circle cx="217" cy="100.044" r="1"/><circle cx="217" cy="150.044" r="1"/><circle cx="217" cy="200.044" r="1"/><circle cx="217" cy="250.044" r="1"/><circle cx="217" cy="300.044" r="1"/><circle cx="217" cy="350.044" r="1"/><circle cx="217" cy="400.044" r="1"/><circle cx="217" cy="450.044" r="1"/><circle cx="217" cy="500.044" r="1"/><circle cx="217" cy="550.044" r="1"/><circle cx="217" cy="600.044" r="1"/><circle cx="217" cy="650.044" r="1"/><circle cx="265" cy=".044" r="1"/><circle cx="265" cy="50.044" r="1"/><circle cx="265" cy="100.044" r="1"/><circle cx="265" cy="150.044" r="1"/><circle cx="265" cy="200.044" r="1"/><circle cx="265" cy="250.044" r="1"/><circle cx="265" cy="300.044" r="1"/><circle cx="265" cy="350.044" r="1"/><circle cx="265" cy="400.044" r="1"/><circle cx="265" cy="450.044" r="1"/><circle cx="265" cy="500.044" r="1"/><circle cx="265" cy="550.044" r="1"/><circle cx="265" cy="600.044" r="1"/><circle cx="265" cy="650.044" r="1"/><circle cx="313" cy=".044" r="1"/><circle cx="313" cy="50.044" r="1"/><circle cx="313" cy="100.044" r="1"/><circle cx="313" cy="150.044" r="1"/><circle cx="313" cy="200.044" r="1"/><circle cx="313" cy="250.044" r="1"/><circle cx="313" cy="300.044" r="1"/><circle cx="313" cy="350.044" r="1"/><circle cx="313" cy="400.044" r="1"/><circle cx="313" cy="450.044" r="1"/><circle cx="313" cy="500.044" r="1"/><circle cx="313" cy="550.044" r="1"/><circle cx="313" cy="600.044" r="1"/><circle cx="313" cy="650.044" r="1"/><circle cx="361" cy=".044" r="1"/><circle cx="361" cy="50.044" r="1"/><circle cx="361" cy="100.044" r="1"/><circle cx="361" cy="150.044" r="1"/><circle cx="361" cy="200.044" r="1"/><circle cx="361" cy="250.044" r="1"/><circle cx="361" cy="300.044" r="1"/><circle cx="361" cy="350.044" r="1"/><circle cx="361" cy="400.044" r="1"/><circle cx="361" cy="450.044" r="1"/><circle cx="361" cy="500.044" r="1"/><circle cx="361" cy="550.044" r="1"/><circle cx="361" cy="600.044" r="1"/><circle cx="361" cy="650.044" r="1"/><circle cx="409" cy=".044" r="1"/><circle cx="409" cy="50.044" r="1"/><circle cx="409" cy="100.044" r="1"/><circle cx="409" cy="150.044" r="1"/><circle cx="409" cy="200.044" r="1"/><circle cx="409" cy="250.044" r="1"/><circle cx="409" cy="300.044" r="1"/><circle cx="409" cy="350.044" r="1"/><circle cx="409" cy="400.044" r="1"/><circle cx="409" cy="450.044" r="1"/><circle cx="409" cy="500.044" r="1"/><circle cx="409" cy="550.044" r="1"/><circle cx="409" cy="600.044" r="1"/><circle cx="409" cy="650.044" r="1"/><circle cx="457" cy=".044" r="1"/><circle cx="457" cy="50.044" r="1"/><circle cx="457" cy="100.044" r="1"/><circle cx="457" cy="150.044" r="1"/><circle cx="457" cy="200.044" r="1"/><circle cx="457" cy="250.044" r="1"/><circle cx="457" cy="300.044" r="1"/><circle cx="457" cy="350.044" r="1"/><circle cx="457" cy="400.044" r="1"/><circle cx="457" cy="450.044" r="1"/><circle cx="457" cy="500.044" r="1"/><circle cx="457" cy="550.044" r="1"/><circle cx="457" cy="600.044" r="1"/><circle cx="457" cy="650.044" r="1"/><circle cx="505" cy=".044" r="1"/><circle cx="505" cy="50.044" r="1"/><circle cx="505" cy="100.044" r="1"/><circle cx="505" cy="150.044" r="1"/><circle cx="505" cy="200.044" r="1"/><circle cx="505" cy="250.044" r="1"/><circle cx="505" cy="300.044" r="1"/><circle cx="505" cy="350.044" r="1"/><circle cx="505" cy="400.044" r="1"/><circle cx="505" cy="450.044" r="1"/><circle cx="505" cy="500.044" r="1"/><circle cx="505" cy="550.044" r="1"/><circle cx="505" cy="600.044" r="1"/><circle cx="505" cy="650.044" r="1"/><circle cx="553" cy=".044" r="1"/><circle cx="553" cy="50.044" r="1"/><circle cx="553" cy="100.044" r="1"/><circle cx="553" cy="150.044" r="1"/><circle cx="553" cy="200.044" r="1"/><circle cx="553" cy="250.044" r="1"/><circle cx="553" cy="300.044" r="1"/><circle cx="553" cy="350.044" r="1"/><circle cx="553" cy="400.044" r="1"/><circle cx="553" cy="450.044" r="1"/><circle cx="553" cy="500.044" r="1"/><circle cx="553" cy="550.044" r="1"/><circle cx="553" cy="600.044" r="1"/><circle cx="553" cy="650.044" r="1"/><circle cx="601" cy=".044" r="1"/><circle cx="601" cy="50.044" r="1"/><circle cx="601" cy="100.044" r="1"/><circle cx="601" cy="150.044" r="1"/><circle cx="601" cy="200.044" r="1"/><circle cx="601" cy="250.044" r="1"/><circle cx="601" cy="300.044" r="1"/><circle cx="601" cy="350.044" r="1"/><circle cx="601" cy="400.044" r="1"/><circle cx="601" cy="450.044" r="1"/><circle cx="601" cy="500.044" r="1"/><circle cx="601" cy="550.044" r="1"/><circle cx="601" cy="600.044" r="1"/><circle cx="601" cy="650.044" r="1"/><circle cx="649" cy=".044" r="1"/><circle cx="649" cy="50.044" r="1"/><circle cx="649" cy="100.044" r="1"/><circle cx="649" cy="150.044" r="1"/><circle cx="649" cy="200.044" r="1"/><circle cx="649" cy="250.044" r="1"/><circle cx="649" cy="300.044" r="1"/><circle cx="649" cy="350.044" r="1"/><circle cx="649" cy="400.044" r="1"/><circle cx="649" cy="450.044" r="1"/><circle cx="649" cy="500.044" r="1"/><circle cx="649" cy="550.044" r="1"/><circle cx="649" cy="600.044" r="1"/><circle cx="649" cy="650.044" r="1"/><circle cx="697" cy=".044" r="1"/><circle cx="697" cy="50.044" r="1"/><circle cx="697" cy="100.044" r="1"/><circle cx="697" cy="150.044" r="1"/><circle cx="697" cy="200.044" r="1"/><circle cx="697" cy="250.044" r="1"/><circle cx="697" cy="300.044" r="1"/><circle cx="697" cy="350.044" r="1"/><circle cx="697" cy="400.044" r="1"/><circle cx="697" cy="450.044" r="1"/><circle cx="697" cy="500.044" r="1"/><circle cx="697" cy="550.044" r="1"/><circle cx="697" cy="600.044" r="1"/><circle cx="697" cy="650.044" r="1"/><circle cx="745" cy=".044" r="1"/><circle cx="745" cy="50.044" r="1"/><circle cx="745" cy="100.044" r="1"/><circle cx="745" cy="150.044" r="1"/><circle cx="745" cy="200.044" r="1"/><circle cx="745" cy="250.044" r="1"/><circle cx="745" cy="300.044" r="1"/><circle cx="745" cy="350.044" r="1"/><circle cx="745" cy="400.044" r="1"/><circle cx="745" cy="450.044" r="1"/><circle cx="745" cy="500.044" r="1"/><circle cx="745" cy="550.044" r="1"/><circle cx="745" cy="600.044" r="1"/><circle cx="745" cy="650.044" r="1"/><circle cx="793" cy=".044" r="1"/><circle cx="793" cy="50.044" r="1"/><circle cx="793" cy="100.044" r="1"/><circle cx="793" cy="150.044" r="1"/><circle cx="793" cy="200.044" r="1"/><circle cx="793" cy="250.044" r="1"/><circle cx="793" cy="300.044" r="1"/><circle cx="793" cy="350.044" r="1"/><circle cx="793" cy="400.044" r="1"/><circle cx="793" cy="450.044" r="1"/><circle cx="793" cy="500.044" r="1"/><circle cx="793" cy="550.044" r="1"/><circle cx="793" cy="600.044" r="1"/><circle cx="793" cy="650.044" r="1"/><circle cx="841" cy=".044" r="1"/><circle cx="841" cy="50.044" r="1"/><circle cx="841" cy="100.044" r="1"/><circle cx="841" cy="150.044" r="1"/><circle cx="841" cy="200.044" r="1"/><circle cx="841" cy="250.044" r="1"/><circle cx="841" cy="300.044" r="1"/><circle cx="841" cy="350.044" r="1"/><circle cx="841" cy="400.044" r="1"/><circle cx="841" cy="450.044" r="1"/><circle cx="841" cy="500.044" r="1"/><circle cx="841" cy="550.044" r="1"/><circle cx="841" cy="600.044" r="1"/><circle cx="841" cy="650.044" r="1"/><circle cx="889" cy=".044" r="1"/><circle cx="889" cy="50.044" r="1"/><circle cx="889" cy="100.044" r="1"/><circle cx="889" cy="150.044" r="1"/><circle cx="889" cy="200.044" r="1"/><circle cx="889" cy="250.044" r="1"/><circle cx="889" cy="300.044" r="1"/><circle cx="889" cy="350.044" r="1"/><circle cx="889" cy="400.044" r="1"/><circle cx="889" cy="450.044" r="1"/><circle cx="889" cy="500.044" r="1"/><circle cx="889" cy="550.044" r="1"/><circle cx="889" cy="600.044" r="1"/><circle cx="889" cy="650.044" r="1"/><circle cx="937" cy=".044" r="1"/><circle cx="937" cy="50.044" r="1"/><circle cx="937" cy="100.044" r="1"/><circle cx="937" cy="150.044" r="1"/><circle cx="937" cy="200.044" r="1"/><circle cx="937" cy="250.044" r="1"/><circle cx="937" cy="300.044" r="1"/><circle cx="937" cy="350.044" r="1"/><circle cx="937" cy="400.044" r="1"/><circle cx="937" cy="450.044" r="1"/><circle cx="937" cy="500.044" r="1"/><circle cx="937" cy="550.044" r="1"/><circle cx="937" cy="600.044" r="1"/><circle cx="937" cy="650.044" r="1"/><circle cx="985" cy=".044" r="1"/><circle cx="985" cy="50.044" r="1"/><circle cx="985" cy="100.044" r="1"/><circle cx="985" cy="150.044" r="1"/><circle cx="985" cy="200.044" r="1"/><circle cx="985" cy="250.044" r="1"/><circle cx="985" cy="300.044" r="1"/><circle cx="985" cy="350.044" r="1"/><circle cx="985" cy="400.044" r="1"/><circle cx="985" cy="450.044" r="1"/><circle cx="985" cy="500.044" r="1"/><circle cx="985" cy="550.044" r="1"/><circle cx="985" cy="600.044" r="1"/><circle cx="985" cy="650.044" r="1"/><circle cx="1033" cy=".044" r="1"/><circle cx="1033" cy="50.044" r="1"/><circle cx="1033" cy="100.044" r="1"/><circle cx="1033" cy="150.044" r="1"/><circle cx="1033" cy="200.044" r="1"/><circle cx="1033" cy="250.044" r="1"/><circle cx="1033" cy="300.044" r="1"/><circle cx="1033" cy="350.044" r="1"/><circle cx="1033" cy="400.044" r="1"/><circle cx="1033" cy="450.044" r="1"/><circle cx="1033" cy="500.044" r="1"/><circle cx="1033" cy="550.044" r="1"/><circle cx="1033" cy="600.044" r="1"/><circle cx="1033" cy="650.044" r="1"/><circle cx="1081" cy=".044" r="1"/><circle cx="1081" cy="50.044" r="1"/><circle cx="1081" cy="100.044" r="1"/><circle cx="1081" cy="150.044" r="1"/><circle cx="1081" cy="200.044" r="1"/><circle cx="1081" cy="250.044" r="1"/><circle cx="1081" cy="300.044" r="1"/><circle cx="1081" cy="350.044" r="1"/><circle cx="1081" cy="400.044" r="1"/><circle cx="1081" cy="450.044" r="1"/><circle cx="1081" cy="500.044" r="1"/><circle cx="1081" cy="550.044" r="1"/><circle cx="1081" cy="600.044" r="1"/><circle cx="1081" cy="650.044" r="1"/><circle cx="1129" cy=".044" r="1"/><circle cx="1129" cy="50.044" r="1"/><circle cx="1129" cy="100.044" r="1"/><circle cx="1129" cy="150.044" r="1"/><circle cx="1129" cy="200.044" r="1"/><circle cx="1129" cy="250.044" r="1"/><circle cx="1129" cy="300.044" r="1"/><circle cx="1129" cy="350.044" r="1"/><circle cx="1129" cy="400.044" r="1"/><circle cx="1129" cy="450.044" r="1"/><circle cx="1129" cy="500.044" r="1"/><circle cx="1129" cy="550.044" r="1"/><circle cx="1129" cy="600.044" r="1"/><circle cx="1129" cy="650.044" r="1"/><circle cx="1177" cy=".044" r="1"/><circle cx="1177" cy="50.044" r="1"/><circle cx="1177" cy="100.044" r="1"/><circle cx="1177" cy="150.044" r="1"/><circle cx="1177" cy="200.044" r="1"/><circle cx="1177" cy="250.044" r="1"/><circle cx="1177" cy="300.044" r="1"/><circle cx="1177" cy="350.044" r="1"/><circle cx="1177" cy="400.044" r="1"/><circle cx="1177" cy="450.044" r="1"/><circle cx="1177" cy="500.044" r="1"/><circle cx="1177" cy="550.044" r="1"/><circle cx="1177" cy="600.044" r="1"/><circle cx="1177" cy="650.044" r="1"/><circle cx="1225" cy=".044" r="1"/><circle cx="1225" cy="50.044" r="1"/><circle cx="1225" cy="100.044" r="1"/><circle cx="1225" cy="150.044" r="1"/><circle cx="1225" cy="200.044" r="1"/><circle cx="1225" cy="250.044" r="1"/><circle cx="1225" cy="300.044" r="1"/><circle cx="1225" cy="350.044" r="1"/><circle cx="1225" cy="400.044" r="1"/><circle cx="1225" cy="450.044" r="1"/><circle cx="1225" cy="500.044" r="1"/><circle cx="1225" cy="550.044" r="1"/><circle cx="1225" cy="600.044" r="1"/><circle cx="1225" cy="650.044" r="1"/><circle cx="1273" cy=".044" r="1"/><circle cx="1273" cy="50.044" r="1"/><circle cx="1273" cy="100.044" r="1"/><circle cx="1273" cy="150.044" r="1"/><circle cx="1273" cy="200.044" r="1"/><circle cx="1273" cy="250.044" r="1"/><circle cx="1273" cy="300.044" r="1"/><circle cx="1273" cy="350.044" r="1"/><circle cx="1273" cy="400.044" r="1"/><circle cx="1273" cy="450.044" r="1"/><circle cx="1273" cy="500.044" r="1"/><circle cx="1273" cy="550.044" r="1"/><circle cx="1273" cy="600.044" r="1"/><circle cx="1273" cy="650.044" r="1"/><circle cx="1321" cy=".044" r="1"/><circle cx="1321" cy="50.044" r="1"/><circle cx="1321" cy="100.044" r="1"/><circle cx="1321" cy="150.044" r="1"/><circle cx="1321" cy="200.044" r="1"/><circle cx="1321" cy="250.044" r="1"/><circle cx="1321" cy="300.044" r="1"/><circle cx="1321" cy="350.044" r="1"/><circle cx="1321" cy="400.044" r="1"/><circle cx="1321" cy="450.044" r="1"/><circle cx="1321" cy="500.044" r="1"/><circle cx="1321" cy="550.044" r="1"/><circle cx="1321" cy="600.044" r="1"/><circle cx="1321" cy="650.044" r="1"/><circle cx="1369" cy=".044" r="1"/><circle cx="1369" cy="50.044" r="1"/><circle cx="1369" cy="100.044" r="1"/><circle cx="1369" cy="150.044" r="1"/><circle cx="1369" cy="200.044" r="1"/><circle cx="1369" cy="250.044" r="1"/><circle cx="1369" cy="300.044" r="1"/><circle cx="1369" cy="350.044" r="1"/><circle cx="1369" cy="400.044" r="1"/><circle cx="1369" cy="450.044" r="1"/><circle cx="1369" cy="500.044" r="1"/><circle cx="1369" cy="550.044" r="1"/><circle cx="1369" cy="600.044" r="1"/><circle cx="1369" cy="650.044" r="1"/><circle cx="1417" cy=".044" r="1"/><circle cx="1417" cy="50.044" r="1"/><circle cx="1417" cy="100.044" r="1"/><circle cx="1417" cy="150.044" r="1"/><circle cx="1417" cy="200.044" r="1"/><circle cx="1417" cy="250.044" r="1"/><circle cx="1417" cy="300.044" r="1"/><circle cx="1417" cy="350.044" r="1"/><circle cx="1417" cy="400.044" r="1"/><circle cx="1417" cy="450.044" r="1"/><circle cx="1417" cy="500.044" r="1"/><circle cx="1417" cy="550.044" r="1"/><circle cx="1417" cy="600.044" r="1"/><circle cx="1417" cy="650.044" r="1"/></g></symbol><symbol fill="none" viewBox="0 0 236 41" id="logo" xmlns="http://www.w3.org/2000/svg"><mask id="ha" style="mask-type:luminance" maskUnits="userSpaceOnUse" x="0" y="8" width="30" height="33"><path d="m12.806 12.44 7.12 1.828a.447.447 0 0 1 .253.065l5.357 1.376-9.672-6.04-3.058 2.771Zm-.623.784-2.306 7.273 1.93 1.868 7.239-7.378-6.864-1.763Zm-10.54 9.332 9.053.006-1.659-1.604a.457.457 0 0 1-.118-.467l2.014-6.354-9.29 8.42Zm11.316.923 6.283 6.075 1.122-6.07-7.405-.005Zm-1.134.175-1.252 1.276 8.181 7.264.288-1.56-7.217-6.98Zm1.069-1.09 8.02.005a.458.458 0 0 1 .45.54l-1.333 7.209 7.785 7.528-8.055-22.281-6.867 6.999Zm15.705 17.312-8.767-8.479-.326 1.76a.458.458 0 0 1-.753.26l-9.147-8.122a.457.457 0 0 1-.023-.662l1.134-1.156-10.26-.007a.457.457 0 0 1-.307-.796L15.506 8.759a.457.457 0 0 1 .55-.049l12.473 7.79a.457.457 0 0 1-.356.83l-7.497-1.925 8.671 23.987a.458.458 0 0 1-.748.484Z" fill="#fff"/></mask><g mask="url(#ha)"><path d="m12.806 12.44 7.12 1.828a.447.447 0 0 1 .253.065l5.357 1.376-9.672-6.04-3.058 2.771Zm-.623.784-2.306 7.273 1.93 1.868 7.239-7.378-6.864-1.763Zm-10.54 9.332 9.053.006-1.659-1.604a.457.457 0 0 1-.118-.467l2.014-6.354-9.29 8.42Zm11.316.923 6.283 6.075 1.122-6.07-7.405-.005Zm-1.134.175-1.252 1.276 8.181 7.264.288-1.56-7.217-6.98Zm1.069-1.09 8.02.005a.458.458 0 0 1 .45.54l-1.333 7.209 7.785 7.528-8.055-22.281-6.867 6.999Zm15.705 17.312-8.767-8.479-.326 1.76a.458.458 0 0 1-.753.26l-9.147-8.122a.457.457 0 0 1-.023-.662l1.134-1.156-10.26-.007a.457.457 0 0 1-.307-.796L15.506 8.759a.457.457 0 0 1 .55-.049l12.473 7.79a.457.457 0 0 1-.356.83l-7.497-1.925 8.671 23.987a.458.458 0 0 1-.748.484Z" fill="url(#hb)"/></g><path d="M18.006 4.032a4.031 4.031 0 1 0 8.063 0 4.031 4.031 0 0 0-8.063 0ZM18.735 14.921a1.063 1.063 0 1 0 2.126 0 1.063 1.063 0 0 0-2.126 0ZM10.752 23.07a1.063 1.063 0 1 0 2.126 0 1.063 1.063 0 0 0-2.127 0ZM18.347 30.28a1.063 1.063 0 1 0 2.126 0 1.063 1.063 0 0 0-2.126 0ZM10.585 12.926a1.063 1.063 0 1 0 2.127 0 1.063 1.063 0 0 0-2.127 0Z" fill="#fff"/><path d="M74.394 35.832a2 2 0 1 0 4.002 0 2 2 0 0 0-4.002 0ZM198.017 35.832a2 2 0 1 0 4 .002 2 2 0 0 0-4-.002ZM88.996 31.545h.936l2.984 4.47 2.984-4.47h.936v8.191h-.924v-6.634l-2.984 4.388h-.047l-2.984-4.377v6.623h-.9v-8.19ZM108.514 31.545h5.921v.843h-4.997v2.796h4.471v.843h-4.471v2.867h5.056v.842h-5.98v-8.19ZM127.88 32.4h-2.75v-.855h6.436v.854h-2.75v7.337h-.936V32.4ZM142.659 31.545h.924v3.64h4.728v-3.64h.924v8.191h-.924v-3.685h-4.728v3.685h-.924v-8.19ZM167.946 35.664v-.023c0-1.86-1.358-3.382-3.23-3.382-1.872 0-3.206 1.498-3.206 3.358v.024c0 1.86 1.357 3.382 3.229 3.382 1.873 0 3.207-1.498 3.207-3.359Zm-7.396 0v-.023c0-2.258 1.697-4.236 4.189-4.236 2.493 0 4.166 1.954 4.166 4.212v.024c0 2.258-1.696 4.236-4.189 4.236-2.493 0-4.166-1.954-4.166-4.213ZM183.064 38.882c2.071 0 3.393-1.404 3.393-3.218v-.023c0-1.814-1.322-3.242-3.393-3.242h-1.92v6.483h1.92Zm-2.844-7.337h2.844c2.574 0 4.353 1.767 4.353 4.072v.024c0 2.305-1.779 4.095-4.353 4.095h-2.844v-8.19Z" fill="#E2E2E2"/><path d="M45.321 10.229h-4.908v-2.52h12.56v2.52h-4.91v12.957h-2.742V10.23ZM57.617 7.708h2.72v6.435h7.385V7.708h2.72v15.479h-2.72v-6.524h-7.385v6.523h-2.72V7.708ZM76.19 7.708h11.477v2.432h-8.756v4.025h7.761v2.432h-7.761v4.157h8.867v2.432H76.19V7.708ZM100.139 20.933l1.636-1.946c1.482 1.282 2.963 2.012 4.887 2.012 1.681 0 2.742-.774 2.742-1.946v-.044c0-1.106-.619-1.703-3.494-2.366-3.294-.796-5.151-1.77-5.151-4.621v-.045c0-2.653 2.211-4.489 5.284-4.489 2.256 0 4.047.686 5.617 1.946l-1.46 2.057c-1.393-1.04-2.786-1.592-4.201-1.592-1.592 0-2.521.818-2.521 1.835v.044c0 1.194.708 1.725 3.671 2.433 3.272.796 4.975 1.967 4.975 4.533v.044c0 2.897-2.277 4.621-5.528 4.621-2.366 0-4.599-.818-6.457-2.476ZM117.1 7.708h2.897l4.71 7.32 4.71-7.32h2.896v15.479h-2.72v-11.1l-4.886 7.296h-.089l-4.843-7.252v11.055H117.1V7.708ZM164.001 15.381c1.946 0 3.184-1.017 3.184-2.587v-.045c0-1.658-1.194-2.564-3.206-2.564h-3.958v5.196h3.98Zm-6.7-7.673h6.899c1.946 0 3.472.575 4.467 1.548.818.84 1.282 1.99 1.282 3.339v.044c0 2.543-1.525 4.069-3.692 4.688l4.179 5.86h-3.206l-3.804-5.396h-3.405v5.395h-2.72V7.708ZM178.795 10.229h-4.909v-2.52h12.56v2.52h-4.909v12.957h-2.742V10.23ZM199.492 7.708h11.521v2.477h-8.801v4.223h7.806v2.477h-7.806v6.301h-2.72V7.708ZM215.922 7.708h2.72v15.479h-2.72V7.707ZM228.349 10.229h-4.909v-2.52H236v2.52h-4.909v12.957h-2.742V10.23Z" fill="#fff"/><mask id="hc" style="mask-type:luminance" maskUnits="userSpaceOnUse" x="136" y="7" width="17" height="17"><path d="M142.111 17.037h-.002l2.654-6.191 2.675 6.191h-.006l2.649 6.148h2.797l-6.811-15.59h-2.52l-6.811 15.59h2.743l2.632-6.148Z" fill="#fff"/></mask><g mask="url(#hc)"><path d="M142.111 17.037h-.002l2.654-6.191 2.675 6.191h-.006l2.649 6.148h2.797l-6.811-15.59h-2.52l-6.811 15.59h2.743l2.632-6.148Z" fill="url(#hd)"/></g><defs><linearGradient id="hb" x1="19.354" y1="5.614" x2="12.369" y2="44.031" gradientUnits="userSpaceOnUse"><stop stop-color="#F68615"/><stop offset="1" stop-color="#F14721"/></linearGradient><linearGradient id="hd" x1="144.807" y1="8.451" x2="144.807" y2="24.133" gradientUnits="userSpaceOnUse"><stop stop-color="#F68615"/><stop offset="1" stop-color="#F14721"/></linearGradient></defs></symbol><symbol fill="none" viewBox="0 0 32 32" id="menu-close" xmlns="http://www.w3.org/2000/svg"><path d="m7.516 25.15 16.97-16.97M7.516 8.183l16.97 16.97" stroke="#FF5F28" stroke-width="2" stroke-linecap="round"/></symbol><symbol fill="none" viewBox="0 0 32 32" id="menu-open" xmlns="http://www.w3.org/2000/svg"><path d="M4 9.334h24M4 16h24M4 22.666h24" stroke="#FF5F28" stroke-width="2" stroke-linecap="round"/></symbol><symbol fill="none" viewBox="0 0 20 21" id="play-button" xmlns="http://www.w3.org/2000/svg"><circle cx="10" cy="10.5" r="9" stroke="#FF5F28" stroke-width="2"/><path d="m9.249 9.199 2.25 1.299-2.25 1.3V9.198Z" fill="#FF5F28" stroke="#FF5F28" stroke-width="2.5"/></symbol><symbol fill="none" viewBox="0 0 1440 683" id="vector" xmlns="http://www.w3.org/2000/svg"><path fill="url(#na)" d="M0 .022h1440v682H0z"/><defs><radialGradient id="na" cx="0" cy="0" r="1" gradientUnits="userSpaceOnUse" gradientTransform="matrix(0 341 -711.858 0 720 341.022)"><stop offset=".625" stop-color="#141417" stop-opacity="0"/><stop offset=".939" stop-color="#141417"/></radialGradient></defs></symbol></svg>