<svg width="24" height="24" viewBox="0 0 24 24" fill="none" xmlns="http://www.w3.org/2000/svg">
<path fill-rule="evenodd" clip-rule="evenodd" d="M20.5143 17.8731L12.775 4.46823C12.3928 3.80626 11.4373 3.80626 11.0551 4.46823L3.31577 17.8731C2.93358 18.5351 3.41132 19.3626 4.17569 19.3626H19.6544C20.4187 19.3626 20.8965 18.5351 20.5143 17.8731ZM14.4948 3.47528C13.3482 1.48936 10.4818 1.48936 9.33525 3.47527L1.59592 16.8802C0.449353 18.8661 1.88256 21.3485 4.17569 21.3485H19.6544C21.9475 21.3485 23.3807 18.8661 22.2341 16.8802L14.4948 3.47528Z" fill="#DE0B0B"/>
<path d="M12.9078 16.8802C12.9078 17.4286 12.4632 17.8731 11.9148 17.8731C11.3664 17.8731 10.9219 17.4286 10.9219 16.8802C10.9219 16.3318 11.3664 15.8872 11.9148 15.8872C12.4632 15.8872 12.9078 16.3318 12.9078 16.8802Z" fill="#DE0B0B"/>
<path d="M10.9219 9.92948C10.9219 9.38109 11.3664 8.93652 11.9148 8.93652C12.4632 8.93652 12.9078 9.38109 12.9078 9.92948V13.9013C12.9078 14.4497 12.4632 14.8943 11.9148 14.8943C11.3664 14.8943 10.9219 14.4497 10.9219 13.9013V9.92948Z" fill="#DE0B0B"/>
</svg>
