<svg width="12" height="12" viewBox="0 0 12 12" fill="none" xmlns="http://www.w3.org/2000/svg">
<path d="M5.53861 3.26894C5.53861 2.9928 5.76247 2.76894 6.03861 2.76894C6.31475 2.76894 6.53861 2.9928 6.53861 3.26894V6.88432C6.53861 7.16047 6.31475 7.38432 6.03861 7.38432C5.76247 7.38432 5.53861 7.16047 5.53861 6.88432V3.26894Z" fill="#FF5F28"/>
<path d="M6.53861 8.808C6.53861 9.08414 6.31475 9.308 6.03861 9.308C5.76247 9.308 5.53861 9.08414 5.53861 8.808C5.53861 8.53186 5.76247 8.308 6.03861 8.308C6.31475 8.308 6.53861 8.53186 6.53861 8.808Z" fill="#FF5F28"/>
<path fill-rule="evenodd" clip-rule="evenodd" d="M6 11C8.76142 11 11 8.76142 11 6C11 3.23858 8.76142 1 6 1C3.23858 1 1 3.23858 1 6C1 8.76142 3.23858 11 6 11ZM6 12C9.31371 12 12 9.31371 12 6C12 2.68629 9.31371 0 6 0C2.68629 0 0 2.68629 0 6C0 9.31371 2.68629 12 6 12Z" fill="#FF5F28"/>
</svg>
