<svg width="13" height="13" viewBox="0 0 13 13" fill="none" xmlns="http://www.w3.org/2000/svg">
<path fill-rule="evenodd" clip-rule="evenodd" d="M2.00921 0.68765C2.45085 0.255617 2.98387 0 3.58268 0C3.82387 0 4.07106 0.0509654 4.29901 0.15933C4.53396 0.268478 4.75064 0.436904 4.91879 0.678006L6.15497 2.41777C6.27352 2.58243 6.37002 2.74862 6.44134 2.92137C6.51434 3.09294 6.56797 3.29338 6.56797 3.50457C6.56797 3.76319 6.49257 4.00665 6.36409 4.22086C6.259 4.40408 6.11977 4.57466 5.96579 4.72905L5.74024 4.96315C5.81431 5.07116 5.91905 5.20827 6.06026 5.37506C6.29186 5.6422 6.53652 5.9118 6.79978 6.17995C7.08107 6.4555 7.34453 6.7029 7.60879 6.92695C7.77816 7.07003 7.91773 7.174 8.02854 7.24699L8.2524 7.02642C8.40745 6.8718 8.58301 6.72565 8.77905 6.62011C8.98857 6.49664 9.22364 6.42238 9.48582 6.42238C9.6849 6.42238 9.87724 6.46501 10.0638 6.54123C10.2373 6.61209 10.4019 6.7074 10.5602 6.8149L10.5658 6.81868L12.3367 8.0741C12.5597 8.22908 12.743 8.43171 12.8579 8.69258L12.8625 8.70297L12.8667 8.7135C12.9445 8.90782 13 9.12587 13 9.37753C13 9.66972 12.9347 9.9643 12.8024 10.244C12.6851 10.4921 12.5317 10.7291 12.3301 10.9512C12.01 11.3034 11.642 11.5736 11.2147 11.7488C10.8104 11.9168 10.3764 12.002 9.91854 12.002C9.26836 12.002 8.5972 11.8492 7.91595 11.5593C7.25053 11.2762 6.59257 10.8981 5.94719 10.4289L5.94635 10.4283C5.30452 9.96021 4.6969 9.44244 4.11817 8.87014L4.11359 8.86561C3.54055 8.28788 3.02174 7.68089 2.55778 7.04459L2.55551 7.04149C2.09396 6.40078 1.71496 5.74978 1.4359 5.09381L1.43507 5.09187C1.15051 4.41704 0.998047 3.74744 0.998047 3.0885C0.998047 2.64727 1.07607 2.21641 1.23748 1.8128C1.40312 1.39322 1.66219 1.01583 2.00921 0.68765Z" fill="url(#paint0_linear_2145_24171)" fill-opacity="0.6"/>
<defs>
<linearGradient id="paint0_linear_2145_24171" x1="9" y1="1" x2="2" y2="12" gradientUnits="userSpaceOnUse">
<stop stop-color="white"/>
<stop offset="0.875" stop-color="white" stop-opacity="0.43"/>
</linearGradient>
</defs>
</svg>
