<svg width="22" height="23" viewBox="0 0 22 23" fill="none" xmlns="http://www.w3.org/2000/svg">
<path fill-rule="evenodd" clip-rule="evenodd" d="M14.663 3.77525C12.8902 2.98535 10.9096 2.78967 9.01657 3.21738C7.12351 3.64509 5.41942 4.67328 4.15845 6.14861C2.89749 7.62394 2.14721 9.46736 2.01951 11.4039C1.89181 13.3405 2.39354 15.2665 3.44987 16.8946C4.50619 18.5227 6.06051 19.7658 7.88102 20.4384C9.70153 21.111 11.6907 21.177 13.5518 20.6268C15.413 20.0765 17.0464 18.9393 18.2084 17.3849C19.3705 15.8305 19.9989 13.942 20 12.0012V11.0818C20 10.5295 20.4477 10.0818 21 10.0818C21.5523 10.0818 22 10.5295 22 11.0818V12.0018C21.9986 14.3739 21.2306 16.6825 19.8103 18.5824C18.39 20.4823 16.3936 21.8721 14.1189 22.5447C11.8442 23.2172 9.41299 23.1365 7.18792 22.3144C4.96285 21.4924 3.06312 19.9731 1.77206 17.9832C0.480993 15.9932 -0.13223 13.6393 0.0238445 11.2723C0.179919 8.90541 1.09693 6.65235 2.63811 4.84917C4.17929 3.04599 6.26206 1.78931 8.57581 1.26655C10.8896 0.743791 13.3103 0.982961 15.477 1.94839C15.9815 2.17317 16.2082 2.76435 15.9834 3.26882C15.7587 3.77329 15.1675 4.00003 14.663 3.77525Z" fill="#54CC49"/>
<path fill-rule="evenodd" clip-rule="evenodd" d="M21.7068 3.29254C22.0975 3.68287 22.0978 4.31603 21.7075 4.70675L11.7075 14.7168C11.52 14.9044 11.2656 15.0099 11.0003 15.01C10.7349 15.0101 10.4805 14.9047 10.2929 14.7171L7.29289 11.7171C6.90237 11.3266 6.90237 10.6934 7.29289 10.3029C7.68342 9.91237 8.31658 9.91237 8.70711 10.3029L10.9996 12.5954L20.2925 3.29325C20.6829 2.90253 21.316 2.90221 21.7068 3.29254Z" fill="#54CC49"/>
</svg>
