<svg width="26" height="26" viewBox="0 0 26 26" fill="none" xmlns="http://www.w3.org/2000/svg">
<path d="M17.0955 14.346H14.5566C12.4741 14.346 10.7776 12.6612 10.7776 10.567V8.02812C10.7776 7.54843 10.3915 7.15063 9.90011 7.15063H6.19128C3.48864 7.15063 1.30078 8.9056 1.30078 12.0411V19.8098C1.30078 22.9453 3.48864 24.7003 6.19128 24.7003H13.0824C15.7851 24.7003 17.9729 22.9453 17.9729 19.8098V15.2235C17.9729 14.7321 17.5751 14.346 17.0955 14.346Z" fill="#FF5F28"/>
<path d="M19.809 1.30005H17.5042H16.2289H12.9179C10.2737 1.30005 8.13266 2.98481 8.03906 5.99165C8.10926 5.99165 8.16776 5.97995 8.23796 5.97995H11.549H12.8243H15.1291C17.8318 5.97995 20.0196 7.73492 20.0196 10.8705V13.1753V16.3459V18.6508C20.0196 18.721 20.0079 18.7795 20.0079 18.838C22.617 18.7561 24.6995 17.0245 24.6995 13.9709V11.666V8.4954V6.19055C24.6995 3.05501 22.5117 1.30005 19.809 1.30005Z" fill="#FF5F28"/>
<path d="M12.9769 7.32551C12.6142 6.96281 11.9941 7.20851 11.9941 7.7116V10.7769C11.9941 12.0639 13.0822 13.1169 14.416 13.1169C15.2467 13.1286 16.405 13.1286 17.3994 13.1286C17.9025 13.1286 18.1599 12.5436 17.8089 12.1926C16.5336 10.9173 14.2639 8.63588 12.9769 7.32551Z" fill="#FF5F28"/>
</svg>
