<svg width="29" height="29" viewBox="0 0 29 29" fill="none" xmlns="http://www.w3.org/2000/svg">
<circle cx="26.0008" cy="26.0011" r="2.00111" transform="rotate(90 26.0008 26.0011)" fill="#636479"/>
<circle cx="18.0008" cy="26.0011" r="2.00111" transform="rotate(90 18.0008 26.0011)" fill="#636479"/>
<circle cx="10.0008" cy="26.0011" r="2.00111" transform="rotate(90 10.0008 26.0011)" fill="#636479"/>
<circle cx="2.00084" cy="26.0011" r="2.00111" transform="rotate(90 2.00084 26.0011)" fill="#636479"/>
<circle cx="26.0008" cy="18.005" r="2.00111" transform="rotate(90 26.0008 18.005)" fill="#636479"/>
<circle cx="26.0008" cy="10.0031" r="2.00111" transform="rotate(90 26.0008 10.0031)" fill="#636479"/>
<circle cx="26.0008" cy="2.00111" r="2.00111" transform="rotate(90 26.0008 2.00111)" fill="#636479"/>
<circle cx="19.0008" cy="18.005" r="2.00111" transform="rotate(90 19.0008 18.005)" fill="#636479"/>
<circle cx="10.0008" cy="18.005" r="2.00111" transform="rotate(90 10.0008 18.005)" fill="#636479"/>
<circle cx="2.00084" cy="2.00111" r="2.00111" transform="rotate(90 2.00084 2.00111)" fill="#636479"/>
<circle cx="9.00084" cy="2.00111" r="2.00111" transform="rotate(90 9.00084 2.00111)" fill="#636479"/>
<circle cx="19.0008" cy="10.0031" r="2.00111" transform="rotate(90 19.0008 10.0031)" fill="#636479"/>
</svg>
