<svg width="1440" height="691" viewBox="0 0 1440 691" fill="none" xmlns="http://www.w3.org/2000/svg">
<g opacity="0.3">
<circle cx="25" cy="0.0444336" r="1" fill="white"/>
<circle cx="25" cy="50.0444" r="1" fill="white"/>
<circle cx="25" cy="100.044" r="1" fill="white"/>
<circle cx="25" cy="150.044" r="1" fill="white"/>
<circle cx="25" cy="200.044" r="1" fill="white"/>
<circle cx="25" cy="250.044" r="1" fill="white"/>
<circle cx="25" cy="300.044" r="1" fill="white"/>
<circle cx="25" cy="350.044" r="1" fill="white"/>
<circle cx="25" cy="400.044" r="1" fill="white"/>
<circle cx="25" cy="450.044" r="1" fill="white"/>
<circle cx="25" cy="500.044" r="1" fill="white"/>
<circle cx="25" cy="550.044" r="1" fill="white"/>
<circle cx="25" cy="600.044" r="1" fill="white"/>
<circle cx="25" cy="650.044" r="1" fill="white"/>
<circle cx="73" cy="0.0444336" r="1" fill="white"/>
<circle cx="73" cy="50.0444" r="1" fill="white"/>
<circle cx="73" cy="100.044" r="1" fill="white"/>
<circle cx="73" cy="150.044" r="1" fill="white"/>
<circle cx="73" cy="200.044" r="1" fill="white"/>
<circle cx="73" cy="250.044" r="1" fill="white"/>
<circle cx="73" cy="300.044" r="1" fill="white"/>
<circle cx="73" cy="350.044" r="1" fill="white"/>
<circle cx="73" cy="400.044" r="1" fill="white"/>
<circle cx="73" cy="450.044" r="1" fill="white"/>
<circle cx="73" cy="500.044" r="1" fill="white"/>
<circle cx="73" cy="550.044" r="1" fill="white"/>
<circle cx="73" cy="600.044" r="1" fill="white"/>
<circle cx="73" cy="650.044" r="1" fill="white"/>
<circle cx="121" cy="0.0444336" r="1" fill="white"/>
<circle cx="121" cy="50.0444" r="1" fill="white"/>
<circle cx="121" cy="100.044" r="1" fill="white"/>
<circle cx="121" cy="150.044" r="1" fill="white"/>
<circle cx="121" cy="200.044" r="1" fill="white"/>
<circle cx="121" cy="250.044" r="1" fill="white"/>
<circle cx="121" cy="300.044" r="1" fill="white"/>
<circle cx="121" cy="350.044" r="1" fill="white"/>
<circle cx="121" cy="400.044" r="1" fill="white"/>
<circle cx="121" cy="450.044" r="1" fill="white"/>
<circle cx="121" cy="500.044" r="1" fill="white"/>
<circle cx="121" cy="550.044" r="1" fill="white"/>
<circle cx="121" cy="600.044" r="1" fill="white"/>
<circle cx="121" cy="650.044" r="1" fill="white"/>
<circle cx="169" cy="0.0444336" r="1" fill="white"/>
<circle cx="169" cy="50.0444" r="1" fill="white"/>
<circle cx="169" cy="100.044" r="1" fill="white"/>
<circle cx="169" cy="150.044" r="1" fill="white"/>
<circle cx="169" cy="200.044" r="1" fill="white"/>
<circle cx="169" cy="250.044" r="1" fill="white"/>
<circle cx="169" cy="300.044" r="1" fill="white"/>
<circle cx="169" cy="350.044" r="1" fill="white"/>
<circle cx="169" cy="400.044" r="1" fill="white"/>
<circle cx="169" cy="450.044" r="1" fill="white"/>
<circle cx="169" cy="500.044" r="1" fill="white"/>
<circle cx="169" cy="550.044" r="1" fill="white"/>
<circle cx="169" cy="600.044" r="1" fill="white"/>
<circle cx="169" cy="650.044" r="1" fill="white"/>
<circle cx="217" cy="0.0444336" r="1" fill="white"/>
<circle cx="217" cy="50.0444" r="1" fill="white"/>
<circle cx="217" cy="100.044" r="1" fill="white"/>
<circle cx="217" cy="150.044" r="1" fill="white"/>
<circle cx="217" cy="200.044" r="1" fill="white"/>
<circle cx="217" cy="250.044" r="1" fill="white"/>
<circle cx="217" cy="300.044" r="1" fill="white"/>
<circle cx="217" cy="350.044" r="1" fill="white"/>
<circle cx="217" cy="400.044" r="1" fill="white"/>
<circle cx="217" cy="450.044" r="1" fill="white"/>
<circle cx="217" cy="500.044" r="1" fill="white"/>
<circle cx="217" cy="550.044" r="1" fill="white"/>
<circle cx="217" cy="600.044" r="1" fill="white"/>
<circle cx="217" cy="650.044" r="1" fill="white"/>
<circle cx="265" cy="0.0444336" r="1" fill="white"/>
<circle cx="265" cy="50.0444" r="1" fill="white"/>
<circle cx="265" cy="100.044" r="1" fill="white"/>
<circle cx="265" cy="150.044" r="1" fill="white"/>
<circle cx="265" cy="200.044" r="1" fill="white"/>
<circle cx="265" cy="250.044" r="1" fill="white"/>
<circle cx="265" cy="300.044" r="1" fill="white"/>
<circle cx="265" cy="350.044" r="1" fill="white"/>
<circle cx="265" cy="400.044" r="1" fill="white"/>
<circle cx="265" cy="450.044" r="1" fill="white"/>
<circle cx="265" cy="500.044" r="1" fill="white"/>
<circle cx="265" cy="550.044" r="1" fill="white"/>
<circle cx="265" cy="600.044" r="1" fill="white"/>
<circle cx="265" cy="650.044" r="1" fill="white"/>
<circle cx="313" cy="0.0444336" r="1" fill="white"/>
<circle cx="313" cy="50.0444" r="1" fill="white"/>
<circle cx="313" cy="100.044" r="1" fill="white"/>
<circle cx="313" cy="150.044" r="1" fill="white"/>
<circle cx="313" cy="200.044" r="1" fill="white"/>
<circle cx="313" cy="250.044" r="1" fill="white"/>
<circle cx="313" cy="300.044" r="1" fill="white"/>
<circle cx="313" cy="350.044" r="1" fill="white"/>
<circle cx="313" cy="400.044" r="1" fill="white"/>
<circle cx="313" cy="450.044" r="1" fill="white"/>
<circle cx="313" cy="500.044" r="1" fill="white"/>
<circle cx="313" cy="550.044" r="1" fill="white"/>
<circle cx="313" cy="600.044" r="1" fill="white"/>
<circle cx="313" cy="650.044" r="1" fill="white"/>
<circle cx="361" cy="0.0444336" r="1" fill="white"/>
<circle cx="361" cy="50.0444" r="1" fill="white"/>
<circle cx="361" cy="100.044" r="1" fill="white"/>
<circle cx="361" cy="150.044" r="1" fill="white"/>
<circle cx="361" cy="200.044" r="1" fill="white"/>
<circle cx="361" cy="250.044" r="1" fill="white"/>
<circle cx="361" cy="300.044" r="1" fill="white"/>
<circle cx="361" cy="350.044" r="1" fill="white"/>
<circle cx="361" cy="400.044" r="1" fill="white"/>
<circle cx="361" cy="450.044" r="1" fill="white"/>
<circle cx="361" cy="500.044" r="1" fill="white"/>
<circle cx="361" cy="550.044" r="1" fill="white"/>
<circle cx="361" cy="600.044" r="1" fill="white"/>
<circle cx="361" cy="650.044" r="1" fill="white"/>
<circle cx="409" cy="0.0444336" r="1" fill="white"/>
<circle cx="409" cy="50.0444" r="1" fill="white"/>
<circle cx="409" cy="100.044" r="1" fill="white"/>
<circle cx="409" cy="150.044" r="1" fill="white"/>
<circle cx="409" cy="200.044" r="1" fill="white"/>
<circle cx="409" cy="250.044" r="1" fill="white"/>
<circle cx="409" cy="300.044" r="1" fill="white"/>
<circle cx="409" cy="350.044" r="1" fill="white"/>
<circle cx="409" cy="400.044" r="1" fill="white"/>
<circle cx="409" cy="450.044" r="1" fill="white"/>
<circle cx="409" cy="500.044" r="1" fill="white"/>
<circle cx="409" cy="550.044" r="1" fill="white"/>
<circle cx="409" cy="600.044" r="1" fill="white"/>
<circle cx="409" cy="650.044" r="1" fill="white"/>
<circle cx="457" cy="0.0444336" r="1" fill="white"/>
<circle cx="457" cy="50.0444" r="1" fill="white"/>
<circle cx="457" cy="100.044" r="1" fill="white"/>
<circle cx="457" cy="150.044" r="1" fill="white"/>
<circle cx="457" cy="200.044" r="1" fill="white"/>
<circle cx="457" cy="250.044" r="1" fill="white"/>
<circle cx="457" cy="300.044" r="1" fill="white"/>
<circle cx="457" cy="350.044" r="1" fill="white"/>
<circle cx="457" cy="400.044" r="1" fill="white"/>
<circle cx="457" cy="450.044" r="1" fill="white"/>
<circle cx="457" cy="500.044" r="1" fill="white"/>
<circle cx="457" cy="550.044" r="1" fill="white"/>
<circle cx="457" cy="600.044" r="1" fill="white"/>
<circle cx="457" cy="650.044" r="1" fill="white"/>
<circle cx="505" cy="0.0444336" r="1" fill="white"/>
<circle cx="505" cy="50.0444" r="1" fill="white"/>
<circle cx="505" cy="100.044" r="1" fill="white"/>
<circle cx="505" cy="150.044" r="1" fill="white"/>
<circle cx="505" cy="200.044" r="1" fill="white"/>
<circle cx="505" cy="250.044" r="1" fill="white"/>
<circle cx="505" cy="300.044" r="1" fill="white"/>
<circle cx="505" cy="350.044" r="1" fill="white"/>
<circle cx="505" cy="400.044" r="1" fill="white"/>
<circle cx="505" cy="450.044" r="1" fill="white"/>
<circle cx="505" cy="500.044" r="1" fill="white"/>
<circle cx="505" cy="550.044" r="1" fill="white"/>
<circle cx="505" cy="600.044" r="1" fill="white"/>
<circle cx="505" cy="650.044" r="1" fill="white"/>
<circle cx="553" cy="0.0444336" r="1" fill="white"/>
<circle cx="553" cy="50.0444" r="1" fill="white"/>
<circle cx="553" cy="100.044" r="1" fill="white"/>
<circle cx="553" cy="150.044" r="1" fill="white"/>
<circle cx="553" cy="200.044" r="1" fill="white"/>
<circle cx="553" cy="250.044" r="1" fill="white"/>
<circle cx="553" cy="300.044" r="1" fill="white"/>
<circle cx="553" cy="350.044" r="1" fill="white"/>
<circle cx="553" cy="400.044" r="1" fill="white"/>
<circle cx="553" cy="450.044" r="1" fill="white"/>
<circle cx="553" cy="500.044" r="1" fill="white"/>
<circle cx="553" cy="550.044" r="1" fill="white"/>
<circle cx="553" cy="600.044" r="1" fill="white"/>
<circle cx="553" cy="650.044" r="1" fill="white"/>
<circle cx="601" cy="0.0444336" r="1" fill="white"/>
<circle cx="601" cy="50.0444" r="1" fill="white"/>
<circle cx="601" cy="100.044" r="1" fill="white"/>
<circle cx="601" cy="150.044" r="1" fill="white"/>
<circle cx="601" cy="200.044" r="1" fill="white"/>
<circle cx="601" cy="250.044" r="1" fill="white"/>
<circle cx="601" cy="300.044" r="1" fill="white"/>
<circle cx="601" cy="350.044" r="1" fill="white"/>
<circle cx="601" cy="400.044" r="1" fill="white"/>
<circle cx="601" cy="450.044" r="1" fill="white"/>
<circle cx="601" cy="500.044" r="1" fill="white"/>
<circle cx="601" cy="550.044" r="1" fill="white"/>
<circle cx="601" cy="600.044" r="1" fill="white"/>
<circle cx="601" cy="650.044" r="1" fill="white"/>
<circle cx="649" cy="0.0444336" r="1" fill="white"/>
<circle cx="649" cy="50.0444" r="1" fill="white"/>
<circle cx="649" cy="100.044" r="1" fill="white"/>
<circle cx="649" cy="150.044" r="1" fill="white"/>
<circle cx="649" cy="200.044" r="1" fill="white"/>
<circle cx="649" cy="250.044" r="1" fill="white"/>
<circle cx="649" cy="300.044" r="1" fill="white"/>
<circle cx="649" cy="350.044" r="1" fill="white"/>
<circle cx="649" cy="400.044" r="1" fill="white"/>
<circle cx="649" cy="450.044" r="1" fill="white"/>
<circle cx="649" cy="500.044" r="1" fill="white"/>
<circle cx="649" cy="550.044" r="1" fill="white"/>
<circle cx="649" cy="600.044" r="1" fill="white"/>
<circle cx="649" cy="650.044" r="1" fill="white"/>
<circle cx="697" cy="0.0444336" r="1" fill="white"/>
<circle cx="697" cy="50.0444" r="1" fill="white"/>
<circle cx="697" cy="100.044" r="1" fill="white"/>
<circle cx="697" cy="150.044" r="1" fill="white"/>
<circle cx="697" cy="200.044" r="1" fill="white"/>
<circle cx="697" cy="250.044" r="1" fill="white"/>
<circle cx="697" cy="300.044" r="1" fill="white"/>
<circle cx="697" cy="350.044" r="1" fill="white"/>
<circle cx="697" cy="400.044" r="1" fill="white"/>
<circle cx="697" cy="450.044" r="1" fill="white"/>
<circle cx="697" cy="500.044" r="1" fill="white"/>
<circle cx="697" cy="550.044" r="1" fill="white"/>
<circle cx="697" cy="600.044" r="1" fill="white"/>
<circle cx="697" cy="650.044" r="1" fill="white"/>
<circle cx="745" cy="0.0444336" r="1" fill="white"/>
<circle cx="745" cy="50.0444" r="1" fill="white"/>
<circle cx="745" cy="100.044" r="1" fill="white"/>
<circle cx="745" cy="150.044" r="1" fill="white"/>
<circle cx="745" cy="200.044" r="1" fill="white"/>
<circle cx="745" cy="250.044" r="1" fill="white"/>
<circle cx="745" cy="300.044" r="1" fill="white"/>
<circle cx="745" cy="350.044" r="1" fill="white"/>
<circle cx="745" cy="400.044" r="1" fill="white"/>
<circle cx="745" cy="450.044" r="1" fill="white"/>
<circle cx="745" cy="500.044" r="1" fill="white"/>
<circle cx="745" cy="550.044" r="1" fill="white"/>
<circle cx="745" cy="600.044" r="1" fill="white"/>
<circle cx="745" cy="650.044" r="1" fill="white"/>
<circle cx="793" cy="0.0444336" r="1" fill="white"/>
<circle cx="793" cy="50.0444" r="1" fill="white"/>
<circle cx="793" cy="100.044" r="1" fill="white"/>
<circle cx="793" cy="150.044" r="1" fill="white"/>
<circle cx="793" cy="200.044" r="1" fill="white"/>
<circle cx="793" cy="250.044" r="1" fill="white"/>
<circle cx="793" cy="300.044" r="1" fill="white"/>
<circle cx="793" cy="350.044" r="1" fill="white"/>
<circle cx="793" cy="400.044" r="1" fill="white"/>
<circle cx="793" cy="450.044" r="1" fill="white"/>
<circle cx="793" cy="500.044" r="1" fill="white"/>
<circle cx="793" cy="550.044" r="1" fill="white"/>
<circle cx="793" cy="600.044" r="1" fill="white"/>
<circle cx="793" cy="650.044" r="1" fill="white"/>
<circle cx="841" cy="0.0444336" r="1" fill="white"/>
<circle cx="841" cy="50.0444" r="1" fill="white"/>
<circle cx="841" cy="100.044" r="1" fill="white"/>
<circle cx="841" cy="150.044" r="1" fill="white"/>
<circle cx="841" cy="200.044" r="1" fill="white"/>
<circle cx="841" cy="250.044" r="1" fill="white"/>
<circle cx="841" cy="300.044" r="1" fill="white"/>
<circle cx="841" cy="350.044" r="1" fill="white"/>
<circle cx="841" cy="400.044" r="1" fill="white"/>
<circle cx="841" cy="450.044" r="1" fill="white"/>
<circle cx="841" cy="500.044" r="1" fill="white"/>
<circle cx="841" cy="550.044" r="1" fill="white"/>
<circle cx="841" cy="600.044" r="1" fill="white"/>
<circle cx="841" cy="650.044" r="1" fill="white"/>
<circle cx="889" cy="0.0444336" r="1" fill="white"/>
<circle cx="889" cy="50.0444" r="1" fill="white"/>
<circle cx="889" cy="100.044" r="1" fill="white"/>
<circle cx="889" cy="150.044" r="1" fill="white"/>
<circle cx="889" cy="200.044" r="1" fill="white"/>
<circle cx="889" cy="250.044" r="1" fill="white"/>
<circle cx="889" cy="300.044" r="1" fill="white"/>
<circle cx="889" cy="350.044" r="1" fill="white"/>
<circle cx="889" cy="400.044" r="1" fill="white"/>
<circle cx="889" cy="450.044" r="1" fill="white"/>
<circle cx="889" cy="500.044" r="1" fill="white"/>
<circle cx="889" cy="550.044" r="1" fill="white"/>
<circle cx="889" cy="600.044" r="1" fill="white"/>
<circle cx="889" cy="650.044" r="1" fill="white"/>
<circle cx="937" cy="0.0444336" r="1" fill="white"/>
<circle cx="937" cy="50.0444" r="1" fill="white"/>
<circle cx="937" cy="100.044" r="1" fill="white"/>
<circle cx="937" cy="150.044" r="1" fill="white"/>
<circle cx="937" cy="200.044" r="1" fill="white"/>
<circle cx="937" cy="250.044" r="1" fill="white"/>
<circle cx="937" cy="300.044" r="1" fill="white"/>
<circle cx="937" cy="350.044" r="1" fill="white"/>
<circle cx="937" cy="400.044" r="1" fill="white"/>
<circle cx="937" cy="450.044" r="1" fill="white"/>
<circle cx="937" cy="500.044" r="1" fill="white"/>
<circle cx="937" cy="550.044" r="1" fill="white"/>
<circle cx="937" cy="600.044" r="1" fill="white"/>
<circle cx="937" cy="650.044" r="1" fill="white"/>
<circle cx="985" cy="0.0444336" r="1" fill="white"/>
<circle cx="985" cy="50.0444" r="1" fill="white"/>
<circle cx="985" cy="100.044" r="1" fill="white"/>
<circle cx="985" cy="150.044" r="1" fill="white"/>
<circle cx="985" cy="200.044" r="1" fill="white"/>
<circle cx="985" cy="250.044" r="1" fill="white"/>
<circle cx="985" cy="300.044" r="1" fill="white"/>
<circle cx="985" cy="350.044" r="1" fill="white"/>
<circle cx="985" cy="400.044" r="1" fill="white"/>
<circle cx="985" cy="450.044" r="1" fill="white"/>
<circle cx="985" cy="500.044" r="1" fill="white"/>
<circle cx="985" cy="550.044" r="1" fill="white"/>
<circle cx="985" cy="600.044" r="1" fill="white"/>
<circle cx="985" cy="650.044" r="1" fill="white"/>
<circle cx="1033" cy="0.0444336" r="1" fill="white"/>
<circle cx="1033" cy="50.0444" r="1" fill="white"/>
<circle cx="1033" cy="100.044" r="1" fill="white"/>
<circle cx="1033" cy="150.044" r="1" fill="white"/>
<circle cx="1033" cy="200.044" r="1" fill="white"/>
<circle cx="1033" cy="250.044" r="1" fill="white"/>
<circle cx="1033" cy="300.044" r="1" fill="white"/>
<circle cx="1033" cy="350.044" r="1" fill="white"/>
<circle cx="1033" cy="400.044" r="1" fill="white"/>
<circle cx="1033" cy="450.044" r="1" fill="white"/>
<circle cx="1033" cy="500.044" r="1" fill="white"/>
<circle cx="1033" cy="550.044" r="1" fill="white"/>
<circle cx="1033" cy="600.044" r="1" fill="white"/>
<circle cx="1033" cy="650.044" r="1" fill="white"/>
<circle cx="1081" cy="0.0444336" r="1" fill="white"/>
<circle cx="1081" cy="50.0444" r="1" fill="white"/>
<circle cx="1081" cy="100.044" r="1" fill="white"/>
<circle cx="1081" cy="150.044" r="1" fill="white"/>
<circle cx="1081" cy="200.044" r="1" fill="white"/>
<circle cx="1081" cy="250.044" r="1" fill="white"/>
<circle cx="1081" cy="300.044" r="1" fill="white"/>
<circle cx="1081" cy="350.044" r="1" fill="white"/>
<circle cx="1081" cy="400.044" r="1" fill="white"/>
<circle cx="1081" cy="450.044" r="1" fill="white"/>
<circle cx="1081" cy="500.044" r="1" fill="white"/>
<circle cx="1081" cy="550.044" r="1" fill="white"/>
<circle cx="1081" cy="600.044" r="1" fill="white"/>
<circle cx="1081" cy="650.044" r="1" fill="white"/>
<circle cx="1129" cy="0.0444336" r="1" fill="white"/>
<circle cx="1129" cy="50.0444" r="1" fill="white"/>
<circle cx="1129" cy="100.044" r="1" fill="white"/>
<circle cx="1129" cy="150.044" r="1" fill="white"/>
<circle cx="1129" cy="200.044" r="1" fill="white"/>
<circle cx="1129" cy="250.044" r="1" fill="white"/>
<circle cx="1129" cy="300.044" r="1" fill="white"/>
<circle cx="1129" cy="350.044" r="1" fill="white"/>
<circle cx="1129" cy="400.044" r="1" fill="white"/>
<circle cx="1129" cy="450.044" r="1" fill="white"/>
<circle cx="1129" cy="500.044" r="1" fill="white"/>
<circle cx="1129" cy="550.044" r="1" fill="white"/>
<circle cx="1129" cy="600.044" r="1" fill="white"/>
<circle cx="1129" cy="650.044" r="1" fill="white"/>
<circle cx="1177" cy="0.0444336" r="1" fill="white"/>
<circle cx="1177" cy="50.0444" r="1" fill="white"/>
<circle cx="1177" cy="100.044" r="1" fill="white"/>
<circle cx="1177" cy="150.044" r="1" fill="white"/>
<circle cx="1177" cy="200.044" r="1" fill="white"/>
<circle cx="1177" cy="250.044" r="1" fill="white"/>
<circle cx="1177" cy="300.044" r="1" fill="white"/>
<circle cx="1177" cy="350.044" r="1" fill="white"/>
<circle cx="1177" cy="400.044" r="1" fill="white"/>
<circle cx="1177" cy="450.044" r="1" fill="white"/>
<circle cx="1177" cy="500.044" r="1" fill="white"/>
<circle cx="1177" cy="550.044" r="1" fill="white"/>
<circle cx="1177" cy="600.044" r="1" fill="white"/>
<circle cx="1177" cy="650.044" r="1" fill="white"/>
<circle cx="1225" cy="0.0444336" r="1" fill="white"/>
<circle cx="1225" cy="50.0444" r="1" fill="white"/>
<circle cx="1225" cy="100.044" r="1" fill="white"/>
<circle cx="1225" cy="150.044" r="1" fill="white"/>
<circle cx="1225" cy="200.044" r="1" fill="white"/>
<circle cx="1225" cy="250.044" r="1" fill="white"/>
<circle cx="1225" cy="300.044" r="1" fill="white"/>
<circle cx="1225" cy="350.044" r="1" fill="white"/>
<circle cx="1225" cy="400.044" r="1" fill="white"/>
<circle cx="1225" cy="450.044" r="1" fill="white"/>
<circle cx="1225" cy="500.044" r="1" fill="white"/>
<circle cx="1225" cy="550.044" r="1" fill="white"/>
<circle cx="1225" cy="600.044" r="1" fill="white"/>
<circle cx="1225" cy="650.044" r="1" fill="white"/>
<circle cx="1273" cy="0.0444336" r="1" fill="white"/>
<circle cx="1273" cy="50.0444" r="1" fill="white"/>
<circle cx="1273" cy="100.044" r="1" fill="white"/>
<circle cx="1273" cy="150.044" r="1" fill="white"/>
<circle cx="1273" cy="200.044" r="1" fill="white"/>
<circle cx="1273" cy="250.044" r="1" fill="white"/>
<circle cx="1273" cy="300.044" r="1" fill="white"/>
<circle cx="1273" cy="350.044" r="1" fill="white"/>
<circle cx="1273" cy="400.044" r="1" fill="white"/>
<circle cx="1273" cy="450.044" r="1" fill="white"/>
<circle cx="1273" cy="500.044" r="1" fill="white"/>
<circle cx="1273" cy="550.044" r="1" fill="white"/>
<circle cx="1273" cy="600.044" r="1" fill="white"/>
<circle cx="1273" cy="650.044" r="1" fill="white"/>
<circle cx="1321" cy="0.0444336" r="1" fill="white"/>
<circle cx="1321" cy="50.0444" r="1" fill="white"/>
<circle cx="1321" cy="100.044" r="1" fill="white"/>
<circle cx="1321" cy="150.044" r="1" fill="white"/>
<circle cx="1321" cy="200.044" r="1" fill="white"/>
<circle cx="1321" cy="250.044" r="1" fill="white"/>
<circle cx="1321" cy="300.044" r="1" fill="white"/>
<circle cx="1321" cy="350.044" r="1" fill="white"/>
<circle cx="1321" cy="400.044" r="1" fill="white"/>
<circle cx="1321" cy="450.044" r="1" fill="white"/>
<circle cx="1321" cy="500.044" r="1" fill="white"/>
<circle cx="1321" cy="550.044" r="1" fill="white"/>
<circle cx="1321" cy="600.044" r="1" fill="white"/>
<circle cx="1321" cy="650.044" r="1" fill="white"/>
<circle cx="1369" cy="0.0444336" r="1" fill="white"/>
<circle cx="1369" cy="50.0444" r="1" fill="white"/>
<circle cx="1369" cy="100.044" r="1" fill="white"/>
<circle cx="1369" cy="150.044" r="1" fill="white"/>
<circle cx="1369" cy="200.044" r="1" fill="white"/>
<circle cx="1369" cy="250.044" r="1" fill="white"/>
<circle cx="1369" cy="300.044" r="1" fill="white"/>
<circle cx="1369" cy="350.044" r="1" fill="white"/>
<circle cx="1369" cy="400.044" r="1" fill="white"/>
<circle cx="1369" cy="450.044" r="1" fill="white"/>
<circle cx="1369" cy="500.044" r="1" fill="white"/>
<circle cx="1369" cy="550.044" r="1" fill="white"/>
<circle cx="1369" cy="600.044" r="1" fill="white"/>
<circle cx="1369" cy="650.044" r="1" fill="white"/>
<circle cx="1417" cy="0.0444336" r="1" fill="white"/>
<circle cx="1417" cy="50.0444" r="1" fill="white"/>
<circle cx="1417" cy="100.044" r="1" fill="white"/>
<circle cx="1417" cy="150.044" r="1" fill="white"/>
<circle cx="1417" cy="200.044" r="1" fill="white"/>
<circle cx="1417" cy="250.044" r="1" fill="white"/>
<circle cx="1417" cy="300.044" r="1" fill="white"/>
<circle cx="1417" cy="350.044" r="1" fill="white"/>
<circle cx="1417" cy="400.044" r="1" fill="white"/>
<circle cx="1417" cy="450.044" r="1" fill="white"/>
<circle cx="1417" cy="500.044" r="1" fill="white"/>
<circle cx="1417" cy="550.044" r="1" fill="white"/>
<circle cx="1417" cy="600.044" r="1" fill="white"/>
<circle cx="1417" cy="650.044" r="1" fill="white"/>
</g>
</svg>
