<svg width="32" height="33" viewBox="0 0 32 33" fill="none" xmlns="http://www.w3.org/2000/svg">
<path d="M18.9332 3.83545C17.2977 3.83545 15.7292 4.48515 14.5727 5.64162C13.4162 6.7981 12.7665 8.36661 12.7665 10.0021V13.4354H9.4665C9.30082 13.4354 9.1665 13.5698 9.1665 13.7354V18.2688C9.1665 18.4345 9.30082 18.5688 9.4665 18.5688H12.7665V27.8688C12.7665 28.0345 12.9008 28.1688 13.0665 28.1688H17.5998C17.7655 28.1688 17.8998 28.0345 17.8998 27.8688V18.5688H21.2291C21.3667 18.5688 21.4867 18.4751 21.5201 18.3415L22.6534 13.8082C22.7008 13.6189 22.5576 13.4354 22.3624 13.4354H17.8998V10.0021C17.8998 9.72806 18.0087 9.46523 18.2025 9.27144C18.3963 9.07765 18.6591 8.96878 18.9332 8.96878H22.3998C22.5655 8.96878 22.6998 8.83447 22.6998 8.66878V4.13545C22.6998 3.96976 22.5655 3.83545 22.3998 3.83545H18.9332Z" fill="white"/>
</svg>
