<svg width="14" height="26" viewBox="0 0 14 26" fill="none" xmlns="http://www.w3.org/2000/svg">
<path d="M9.93268 0.833374C8.29718 0.833374 6.72866 1.48307 5.57219 2.63955C4.41572 3.79602 3.76602 5.36454 3.76602 7.00004V10.4334H0.466016C0.30033 10.4334 0.166016 10.5677 0.166016 10.7334V15.2667C0.166016 15.4324 0.30033 15.5667 0.466016 15.5667H3.76602V24.8667C3.76602 25.0324 3.90033 25.1667 4.06602 25.1667H8.59935C8.76503 25.1667 8.89935 25.0324 8.89935 24.8667V15.5667H12.2286C12.3662 15.5667 12.4862 15.473 12.5196 15.3395L13.653 10.8061C13.7003 10.6168 13.5571 10.4334 13.3619 10.4334H8.89935V7.00004C8.89935 6.72598 9.00822 6.46315 9.20201 6.26936C9.39579 6.07558 9.65863 5.96671 9.93268 5.96671H13.3993C13.565 5.96671 13.6993 5.83239 13.6993 5.66671V1.13337C13.6993 0.967689 13.565 0.833374 13.3993 0.833374H9.93268Z" fill="#FF5F28"/>
</svg>
