<svg width="24" height="25" viewBox="0 0 24 25" fill="none" xmlns="http://www.w3.org/2000/svg">
<path fill-rule="evenodd" clip-rule="evenodd" d="M22.001 15.9384C22.001 19.0096 19.9512 21.5084 16.9098 21.5H7.09211C4.05076 21.5084 2.00098 19.0096 2.00098 15.9384V9.07001C2.00098 5.99883 4.05076 3.5 7.09211 3.5H16.9098C19.9512 3.5 22.001 5.99883 22.001 9.07001V15.9384ZM6.82632 8.44773C6.34265 8.10018 5.6344 8.16785 5.24439 8.59886C4.85439 9.02988 4.93032 9.66104 5.41399 10.0086L9.89475 13.2283L9.90174 13.2333C11.1508 14.1163 12.9113 14.1164 14.1603 13.2333L18.6141 10.006C19.0962 9.65668 19.1692 9.02525 18.7772 8.59566C18.3852 8.16608 17.6767 8.101 17.1946 8.45032L12.7574 11.6656C12.3287 11.9658 11.7314 11.9654 11.3031 11.6646L6.82632 8.44773Z" fill="url(#paint0_linear_1653_40628)" fill-opacity="0.6"/>
<defs>
<linearGradient id="paint0_linear_1653_40628" x1="19.5" y1="4.25" x2="2.25" y2="21.5" gradientUnits="userSpaceOnUse">
<stop stop-color="white"/>
<stop offset="0.901042" stop-color="white" stop-opacity="0.43"/>
</linearGradient>
</defs>
</svg>
