<svg width="26" height="26" viewBox="0 0 26 26" fill="none" xmlns="http://www.w3.org/2000/svg">
<path d="M13.0002 8.66669C10.607 8.66669 8.66691 10.6068 8.66691 13C8.66691 15.3933 10.607 17.3334 13.0002 17.3334C15.3935 17.3334 17.3336 15.3933 17.3336 13C17.3336 10.6068 15.3935 8.66669 13.0002 8.66669Z" fill="#FF5F28"/>
<path fill-rule="evenodd" clip-rule="evenodd" d="M6.02629 1.10864C10.6238 0.594807 15.3767 0.594807 19.9742 1.10864C22.5054 1.39154 24.547 3.38591 24.8441 5.92598C25.3938 10.626 25.3938 15.3741 24.8441 20.0741C24.547 22.6141 22.5054 24.6085 19.9742 24.8914C15.3767 25.4052 10.6238 25.4052 6.0263 24.8914C3.4951 24.6085 1.45351 22.6141 1.15642 20.0741C0.606714 15.374 0.606714 10.626 1.15642 5.92598C1.45351 3.38591 3.4951 1.39154 6.02629 1.10864ZM19.6669 5.00002C18.9305 5.00002 18.3336 5.59697 18.3336 6.33335C18.3336 7.06973 18.9305 7.66669 19.6669 7.66669C20.4033 7.66669 21.0002 7.06973 21.0002 6.33335C21.0002 5.59697 20.4033 5.00002 19.6669 5.00002ZM6.66691 13C6.66691 9.50222 9.50244 6.66669 13.0002 6.66669C16.498 6.66669 19.3336 9.50222 19.3336 13C19.3336 16.4978 16.498 19.3334 13.0002 19.3334C9.50244 19.3334 6.66691 16.4978 6.66691 13Z" fill="#FF5F28"/>
</svg>
