<svg width="32" height="33" viewBox="0 0 32 33" fill="none" xmlns="http://www.w3.org/2000/svg">
<path d="M16.0007 11.6685C13.6075 11.6685 11.6674 13.6086 11.6674 16.0019C11.6674 18.3951 13.6075 20.3352 16.0007 20.3352C18.394 20.3352 20.3341 18.3951 20.3341 16.0019C20.3341 13.6086 18.394 11.6685 16.0007 11.6685Z" fill="white"/>
<path fill-rule="evenodd" clip-rule="evenodd" d="M9.02678 4.11048C13.6243 3.59664 18.3772 3.59664 22.9747 4.11048C25.5059 4.39337 27.5475 6.38775 27.8446 8.92782C28.3943 13.6278 28.3943 18.3759 27.8446 23.0759C27.5475 25.616 25.5059 27.6103 22.9747 27.8932C18.3772 28.4071 13.6243 28.4071 9.02678 27.8932C6.49559 27.6103 4.45399 25.616 4.15691 23.0759C3.6072 18.3759 3.6072 13.6278 4.15691 8.92782C4.45399 6.38774 6.49559 4.39337 9.02678 4.11048ZM22.6674 8.00185C21.931 8.00185 21.3341 8.59881 21.3341 9.33519C21.3341 10.0716 21.931 10.6685 22.6674 10.6685C23.4038 10.6685 24.0007 10.0716 24.0007 9.33519C24.0007 8.59881 23.4038 8.00185 22.6674 8.00185ZM9.6674 16.0019C9.6674 12.504 12.5029 9.66852 16.0007 9.66852C19.4985 9.66852 22.3341 12.504 22.3341 16.0019C22.3341 19.4997 19.4985 22.3352 16.0007 22.3352C12.5029 22.3352 9.6674 19.4997 9.6674 16.0019Z" fill="white"/>
</svg>
