<svg width="51" height="48" viewBox="0 0 51 48" fill="none" xmlns="http://www.w3.org/2000/svg">
<g clip-path="url(#clip0_163_52019)">
<path d="M25.2421 36.1219L36.8953 42.2531L34.6734 29.2781L44.1046 20.0906L31.0734 18.1969L25.2421 6.38437V0C26.3109 0 27.3796 0.553125 27.9328 1.66875L34.0546 14.0812L47.7515 16.0687C50.2078 16.425 51.1921 19.4531 49.4109 21.1875L39.5015 30.8438L41.8453 44.4844C42.2671 46.9313 39.689 48.7969 37.4953 47.6438L25.2421 41.2125V36.1219Z" fill="#FFC403"/>
</g>
<g clip-path="url(#clip1_163_52019)">
<path d="M25.3985 36.1219L13.7454 42.2531L15.9672 29.2781L6.53598 20.0906L19.5672 18.1969L25.3985 6.38437V0C24.3297 0 23.261 0.553125 22.7079 1.66875L16.586 14.0812L2.88911 16.0687C0.432857 16.425 -0.551518 19.4531 1.22973 21.1875L11.1391 30.8438L8.79536 44.4844C8.37348 46.9313 10.9516 48.7969 13.1454 47.6438L25.3985 41.2125V36.1219Z" fill="#FFC403"/>
</g>
<defs>
<clipPath id="clip0_163_52019">
<rect width="25.08" height="48" fill="white" transform="translate(25.3203)"/>
</clipPath>
<clipPath id="clip1_163_52019">
<rect width="25.08" height="48" fill="white" transform="translate(0.320312)"/>
</clipPath>
</defs>
</svg>
