<svg width="13" height="13" viewBox="0 0 13 13" fill="none" xmlns="http://www.w3.org/2000/svg">
<path d="M6.40671 0.368774C6.13368 0.368774 5.86065 0.510081 5.71934 0.795089L4.15539 3.96611L0.656249 4.47385C0.0287517 4.56486 -0.222726 5.33846 0.232329 5.78154L2.76387 8.24842L2.16512 11.7332C2.05734 12.3583 2.71597 12.8349 3.27641 12.5403L6.40671 10.8973V0.368774Z" fill="#FFC403"/>
<path d="M6.36672 0.368774C6.63976 0.368774 6.91279 0.510081 7.0541 0.795089L8.61805 3.96611L12.1172 4.47385C12.7447 4.56486 12.9962 5.33846 12.5411 5.78154L10.0096 8.24842L10.6083 11.7332C10.7161 12.3583 10.0575 12.8349 9.49703 12.5403L6.36672 10.8973V0.368774Z" fill="#FFC403"/>
</svg>
