<svg width="27" height="23" viewBox="0 0 27 23" fill="none" xmlns="http://www.w3.org/2000/svg">
<path d="M26.0797 3.30302C26.157 3.19533 26.0428 3.05628 25.9192 3.10418C25.0409 3.44462 24.123 3.67431 23.1867 3.78751C24.2293 3.16468 25.0337 2.21657 25.4799 1.09409C25.5253 0.979739 25.4004 0.877624 25.2927 0.937109C24.3238 1.47223 23.2788 1.85755 22.1932 2.07947C22.1478 2.08876 22.1009 2.07329 22.069 2.03963C21.2544 1.18006 20.1821 0.607749 19.0131 0.409976C17.8196 0.20805 16.5928 0.407986 15.5251 0.978427C14.4574 1.54887 13.6093 2.45755 13.1137 3.56196C12.6425 4.61204 12.5153 5.78258 12.7477 6.90675C12.7658 6.99398 12.6975 7.07633 12.6086 7.07081C10.4965 6.93963 8.43292 6.37785 6.54491 5.41932C4.66169 4.46323 2.99405 3.13314 1.64356 1.5111C1.58362 1.43911 1.47002 1.44843 1.42635 1.5313C1.00613 2.32872 0.786106 3.21752 0.786704 4.12084C0.784998 5.02002 1.00566 5.90566 1.42904 6.69893C1.85243 7.49219 2.46539 8.16845 3.21337 8.66751C2.42014 8.64592 1.64237 8.44982 0.935035 8.09427C0.843878 8.04845 0.734536 8.11369 0.739277 8.21561C0.794435 9.40125 1.22971 10.5916 1.98312 11.5048C2.78488 12.4766 3.89771 13.1417 5.13337 13.3875C4.65771 13.5323 4.16387 13.6086 3.6667 13.6142C3.39612 13.611 3.12606 13.591 2.85808 13.5544C2.75873 13.5408 2.67759 13.6352 2.71238 13.7293C3.08093 14.7259 3.73203 15.5956 4.58814 16.2304C5.50341 16.9091 6.60747 17.2856 7.7467 17.3075C5.82297 18.8212 3.44788 19.6473 1.00004 19.6542C0.748512 19.655 0.4971 19.6468 0.246279 19.6298C0.104935 19.6201 0.0399286 19.8084 0.161762 19.8807C2.54679 21.2961 5.27282 22.0442 8.05337 22.0408C10.1063 22.0622 12.1429 21.6742 14.0442 20.8996C15.9455 20.125 17.6734 18.9794 19.127 17.5295C20.5805 16.0797 21.7307 14.3547 22.5101 12.4554C23.2896 10.5561 23.6828 8.52048 23.6667 6.46751V5.82773C23.6667 5.78564 23.6866 5.74605 23.7202 5.72069C24.6246 5.03783 25.4199 4.22258 26.0797 3.30302Z" fill="#FF5F28"/>
</svg>
