<svg width="28" height="28" viewBox="0 0 28 28" fill="none" xmlns="http://www.w3.org/2000/svg">
<path d="M11.02 7.97066L11.0203 7.97124C11.1938 8.35795 11.4829 9.0619 11.7151 9.62743L11.718 9.63466C11.8093 9.85688 11.8919 10.058 11.9563 10.2129C11.9886 10.2905 12.0158 10.3552 12.0371 10.4047C12.0477 10.4294 12.0564 10.4494 12.0632 10.4647L12.0713 10.4825C12.073 10.4861 12.0738 10.4878 12.074 10.4882C12.1911 10.7214 12.2988 11.0722 12.1026 11.4744L11.02 7.97066ZM11.02 7.97066C10.8701 7.63782 10.6875 7.4023 10.4492 7.26419M11.02 7.97066L10.4492 7.26419M15.571 16.8243C15.5044 16.7911 15.4191 16.7543 15.333 16.7172L15.3238 16.7132L15.3228 16.7128C14.8546 16.5108 13.9499 16.1204 12.9037 15.189L12.9029 15.1883C11.9328 14.3287 11.2682 13.2536 11.0786 12.9267L15.3756 17.2169M15.571 16.8243L15.3756 17.2169M15.571 16.8243C15.571 16.8243 15.5709 16.8243 15.5709 16.8242L15.3756 17.2169M15.571 16.8243C15.6762 16.8766 15.7279 16.8864 15.7452 16.8883M15.3756 17.2169C15.7186 17.3875 15.9231 17.3613 16.1209 17.1315C16.3189 16.9017 16.9784 16.1336 17.2093 15.7923M15.7452 16.8883C15.7427 16.8902 15.7409 16.8914 15.74 16.892C15.7398 16.8921 15.7399 16.892 15.7403 16.8919C15.7417 16.8913 15.7462 16.8894 15.7515 16.8888C15.7519 16.8888 15.7521 16.8888 15.7521 16.8888C15.7521 16.8887 15.75 16.8888 15.7452 16.8883ZM15.7452 16.8883C15.7528 16.8826 15.7673 16.8701 15.7886 16.8454L15.7887 16.8454C15.9953 16.6054 16.6308 15.864 16.8448 15.5484M16.8448 15.5484C16.8442 15.5494 16.8435 15.5504 16.8428 15.5515L17.2093 15.7923M16.8448 15.5484C16.8453 15.5477 16.8457 15.5471 16.8461 15.5465L17.2093 15.7923M16.8448 15.5484C17.0039 15.3076 17.2185 15.1334 17.5092 15.0991C17.7539 15.0703 17.9855 15.1552 18.1343 15.2107L18.1343 15.2107C18.3166 15.2788 18.8419 15.5272 19.3353 15.7648C19.8414 16.0084 20.351 16.2587 20.5244 16.345L20.5245 16.345C20.5889 16.3771 20.6496 16.4062 20.7086 16.4345L20.7213 16.4406C20.8302 16.4928 20.9478 16.5492 21.0461 16.6092C21.1476 16.6712 21.2772 16.7651 21.3657 16.9142L17.981 15.6216M17.2093 15.7923C17.4335 15.4509 17.6644 15.5035 17.981 15.6216M17.981 15.6216C18.2976 15.7397 19.9861 16.5669 20.329 16.7376L17.981 15.6216ZM10.4492 7.26419C10.2191 7.1308 9.99308 7.12495 9.87045 7.12177M10.4492 7.26419L9.87045 7.12177M9.87045 7.12177C9.86742 7.12169 9.86446 7.12162 9.86156 7.12154M9.87045 7.12177L9.86156 7.12154M9.86156 7.12154C9.65677 7.11481 9.42059 7.11481 9.19367 7.11481H9.18885C8.85764 7.11481 8.3637 7.23627 7.95052 7.6818L9.86156 7.12154ZM7.91367 25.1095C7.81587 25.0565 7.7016 25.0427 7.59398 25.0708L1.45086 26.6754C1.38023 26.6938 1.31612 26.6288 1.33551 26.5585L2.97633 20.6026C3.00756 20.4892 2.99196 20.368 2.93303 20.2663C1.8085 18.3247 1.21703 16.1229 1.21783 13.882V13.8819C1.21783 6.83909 6.98203 1.10528 14.0565 1.10528C17.4957 1.10528 20.7154 2.43801 23.1395 4.85077C25.5631 7.26312 26.8953 10.4731 26.8953 13.8884C26.8953 20.9311 21.1311 26.6649 14.0566 26.6649H14.05C11.9004 26.6649 9.78897 26.1253 7.91367 25.1095ZM12.0658 11.5505L12.1025 11.4745L11.0545 12.8771C11.0576 12.8726 11.062 12.8668 11.0678 12.8595C11.0887 12.8338 11.1158 12.8058 11.1602 12.7617L11.1604 12.7615C11.2723 12.6501 11.3961 12.5004 11.5029 12.3714L11.5118 12.3606C11.5771 12.2817 11.6383 12.2078 11.6961 12.1414L11.6962 12.1413C11.8863 11.923 11.9716 11.7459 12.062 11.5583L12.0658 11.5505L12.0658 11.5505ZM18.3407 20.8499C18.4029 20.8424 18.4567 20.8359 18.5098 20.8309L7.89116 7.7449L7.89116 7.7449C7.51122 8.14645 6.63302 9.07788 6.63302 10.8359C6.63302 11.7634 6.96634 12.6514 7.30544 13.3215C7.6475 13.9975 8.01481 14.489 8.11782 14.6268L8.11787 14.6269L8.1179 14.6269L8.12488 14.6363C8.12487 14.6363 8.1261 14.6379 8.12904 14.6421L8.14167 14.6604L8.18333 14.7218L8.54655 14.476L8.18334 14.7218L8.18844 14.7293C8.62904 15.3806 10.8254 18.6273 14.1861 19.9489C15.5119 20.4707 16.384 20.7187 17.0114 20.8239C17.6549 20.9318 18.031 20.8874 18.3407 20.8499Z" fill="#FF5F28" stroke="#FF5F28" stroke-width="0.877072" stroke-linejoin="round"/>
</svg>
