<?xml version="1.0" encoding="utf-8"?><svg xmlns="http://www.w3.org/2000/svg" xmlns:xlink="http://www.w3.org/1999/xlink"><symbol viewBox="0 0 100 100" id="_sprite" xmlns="http://www.w3.org/2000/svg"/><symbol viewBox="0 0 312 50" id="border-accent" xmlns="http://www.w3.org/2000/svg"><rect x=".5" y=".5" width="311" height="49" rx="13.5"/><path d="M129.249 23.308h-2.258a2.802 2.802 0 0 0-.356-.984 2.638 2.638 0 0 0-1.527-1.19 3.437 3.437 0 0 0-1.057-.156c-.672 0-1.267.169-1.786.507-.52.334-.926.825-1.22 1.473-.294.644-.441 1.43-.441 2.36 0 .946.147 1.743.441 2.39.298.645.704 1.132 1.22 1.462.519.326 1.112.489 1.78.489.371 0 .717-.049 1.039-.145.326-.1.618-.248.875-.44a2.684 2.684 0 0 0 1.032-1.678l2.258.011a4.844 4.844 0 0 1-.549 1.654c-.278.515-.642.97-1.093 1.364-.451.39-.978.697-1.581.918a5.902 5.902 0 0 1-2.011.326c-1.086 0-2.056-.252-2.91-.755-.853-.503-1.525-1.23-2.016-2.179-.491-.95-.736-2.089-.736-3.417 0-1.332.247-2.47.742-3.417.495-.95 1.169-1.676 2.023-2.18.853-.502 1.819-.754 2.897-.754.688 0 1.328.097 1.92.29a4.917 4.917 0 0 1 1.582.851c.463.37.843.825 1.141 1.365.302.535.499 1.147.591 1.835Zm6.299 8.373c-.905 0-1.69-.2-2.354-.598a4.057 4.057 0 0 1-1.545-1.672c-.363-.716-.544-1.553-.544-2.511 0-.958.181-1.797.544-2.517.366-.721.881-1.28 1.545-1.679.664-.398 1.449-.598 2.354-.598.906 0 1.691.2 2.355.598a4.008 4.008 0 0 1 1.539 1.678c.367.72.55 1.56.55 2.518 0 .958-.183 1.795-.55 2.511a4.017 4.017 0 0 1-1.539 1.672c-.664.399-1.449.598-2.355.598Zm.013-1.75c.491 0 .901-.135 1.231-.405.33-.274.576-.64.737-1.099.165-.459.247-.97.247-1.533 0-.568-.082-1.08-.247-1.54-.161-.462-.407-.83-.737-1.104-.33-.274-.74-.41-1.231-.41-.504 0-.922.136-1.256.41-.33.273-.578.642-.743 1.104a4.627 4.627 0 0 0-.241 1.54c0 .563.08 1.074.241 1.533.165.459.413.825.743 1.099.334.27.752.404 1.256.404Zm8.771-3.864V31.5h-2.185v-9.273h2.088v1.576h.109c.213-.52.553-.932 1.02-1.238.471-.306 1.053-.459 1.745-.459.64 0 1.197.137 1.672.411.479.274.849.67 1.111 1.19.266.518.396 1.148.392 1.889V31.5h-2.185v-5.566c0-.62-.161-1.105-.483-1.455-.318-.35-.759-.525-1.322-.525-.382 0-.723.084-1.02.253a1.758 1.758 0 0 0-.695.719c-.165.314-.247.694-.247 1.14Zm13.104-3.84v1.69h-5.33v-1.69h5.33Zm-4.014-2.221h2.185v8.705c0 .294.044.52.133.676a.714.714 0 0 0 .362.314c.149.056.314.084.495.084.137 0 .262-.01.374-.03.117-.02.206-.038.266-.054l.368 1.708c-.116.04-.283.085-.501.133a4.105 4.105 0 0 1-.785.085 3.565 3.565 0 0 1-1.479-.248 2.306 2.306 0 0 1-1.044-.857c-.254-.386-.378-.87-.374-1.449v-9.067Zm6.142 11.494v-9.273h2.185V31.5h-2.185Zm1.099-10.589c-.347 0-.644-.114-.894-.344a1.11 1.11 0 0 1-.374-.839c0-.33.125-.61.374-.84.25-.233.547-.35.894-.35.35 0 .648.117.893.35.25.23.374.51.374.84 0 .326-.124.606-.374.84a1.26 1.26 0 0 1-.893.343Zm5.819 5.156V31.5h-2.185v-9.273h2.088v1.576h.109c.213-.52.553-.932 1.02-1.238.471-.306 1.053-.459 1.745-.459.64 0 1.197.137 1.672.411.479.274.849.67 1.111 1.19.266.518.396 1.148.392 1.889V31.5h-2.185v-5.566c0-.62-.161-1.105-.483-1.455-.318-.35-.759-.525-1.322-.525-.382 0-.723.084-1.02.253a1.758 1.758 0 0 0-.695.719c-.165.314-.247.694-.247 1.14Zm14.384 1.533v-5.373h2.185V31.5h-2.119v-1.648h-.096c-.209.52-.554.944-1.032 1.274-.475.33-1.061.495-1.757.495-.608 0-1.145-.135-1.612-.405a2.814 2.814 0 0 1-1.087-1.189c-.261-.523-.392-1.155-.392-1.896v-5.904h2.185v5.566c0 .588.161 1.055.483 1.4.322.347.745.52 1.268.52.322 0 .634-.078.936-.235.302-.157.549-.39.742-.7.197-.315.296-.707.296-1.178Zm8.838 4.081c-.93 0-1.733-.193-2.409-.58a3.923 3.923 0 0 1-1.551-1.654c-.363-.716-.544-1.56-.544-2.529 0-.954.181-1.791.544-2.511a4.106 4.106 0 0 1 1.533-1.69c.656-.407 1.427-.61 2.312-.61a4.68 4.68 0 0 1 1.618.277c.511.181.962.463 1.352.845.395.383.705.87.93 1.461.225.588.338 1.288.338 2.101v.67h-7.601v-1.473h5.506a2.351 2.351 0 0 0-.271-1.117 1.982 1.982 0 0 0-.743-.778 2.087 2.087 0 0 0-1.099-.284 2.13 2.13 0 0 0-1.177.326 2.246 2.246 0 0 0-.791.845c-.185.346-.28.727-.284 1.141v1.286c0 .54.099 1.002.296 1.389.197.382.473.676.827.88.355.202.769.303 1.244.303.318 0 .606-.045.863-.133a1.91 1.91 0 0 0 .67-.405c.189-.177.332-.396.429-.658l2.04.23a3.174 3.174 0 0 1-.736 1.412 3.59 3.59 0 0 1-1.376.93c-.56.217-1.2.326-1.92.326Z"/><rect x=".5" y=".5" width="311" height="49" rx="13.5"/><defs><linearGradient id="ba" x1="312" y1="0" x2="-7.286" y2="37.324" gradientUnits="userSpaceOnUse"><stop stop-color="#F18A03"/><stop offset="1" stop-color="#E9531A"/></linearGradient></defs></symbol><symbol viewBox="0 0 236 41" id="logo" xmlns="http://www.w3.org/2000/svg"><mask id="ca" style="mask-type:luminance" maskUnits="userSpaceOnUse" x="0" y="8" width="30" height="33"><path d="m12.806 12.44 7.12 1.828a.447.447 0 0 1 .253.065l5.357 1.376-9.672-6.04-3.058 2.771Zm-.623.784-2.306 7.273 1.93 1.868 7.239-7.378-6.864-1.763Zm-10.54 9.332 9.053.006-1.659-1.604a.457.457 0 0 1-.118-.467l2.014-6.354-9.29 8.42Zm11.316.923 6.283 6.075 1.122-6.07-7.405-.005Zm-1.134.175-1.252 1.276 8.181 7.264.288-1.56-7.217-6.98Zm1.069-1.09 8.02.005a.458.458 0 0 1 .45.54l-1.333 7.209 7.785 7.528-8.055-22.281-6.867 6.999Zm15.705 17.312-8.767-8.479-.326 1.76a.458.458 0 0 1-.753.26l-9.147-8.122a.457.457 0 0 1-.023-.662l1.134-1.156-10.26-.007a.457.457 0 0 1-.307-.796L15.506 8.759a.457.457 0 0 1 .55-.049l12.473 7.79a.457.457 0 0 1-.356.83l-7.497-1.925 8.671 23.987a.458.458 0 0 1-.748.484Z"/></mask><g mask="url(#ca)"><path d="m12.806 12.44 7.12 1.828a.447.447 0 0 1 .253.065l5.357 1.376-9.672-6.04-3.058 2.771Zm-.623.784-2.306 7.273 1.93 1.868 7.239-7.378-6.864-1.763Zm-10.54 9.332 9.053.006-1.659-1.604a.457.457 0 0 1-.118-.467l2.014-6.354-9.29 8.42Zm11.316.923 6.283 6.075 1.122-6.07-7.405-.005Zm-1.134.175-1.252 1.276 8.181 7.264.288-1.56-7.217-6.98Zm1.069-1.09 8.02.005a.458.458 0 0 1 .45.54l-1.333 7.209 7.785 7.528-8.055-22.281-6.867 6.999Zm15.705 17.312-8.767-8.479-.326 1.76a.458.458 0 0 1-.753.26l-9.147-8.122a.457.457 0 0 1-.023-.662l1.134-1.156-10.26-.007a.457.457 0 0 1-.307-.796L15.506 8.759a.457.457 0 0 1 .55-.049l12.473 7.79a.457.457 0 0 1-.356.83l-7.497-1.925 8.671 23.987a.458.458 0 0 1-.748.484Z"/></g><path d="M18.006 4.032a4.031 4.031 0 1 0 8.063 0 4.031 4.031 0 0 0-8.063 0ZM18.735 14.921a1.063 1.063 0 1 0 2.126 0 1.063 1.063 0 0 0-2.126 0ZM10.752 23.07a1.063 1.063 0 1 0 2.126 0 1.063 1.063 0 0 0-2.127 0ZM18.347 30.28a1.063 1.063 0 1 0 2.126 0 1.063 1.063 0 0 0-2.126 0ZM10.585 12.926a1.063 1.063 0 1 0 2.127 0 1.063 1.063 0 0 0-2.127 0Z"/><path d="M74.394 35.832a2 2 0 1 0 4.002 0 2 2 0 0 0-4.002 0ZM198.017 35.832a2 2 0 1 0 4 .002 2 2 0 0 0-4-.002ZM88.996 31.545h.936l2.984 4.47 2.984-4.47h.936v8.191h-.924v-6.634l-2.984 4.388h-.047l-2.984-4.377v6.623h-.9v-8.19ZM108.514 31.545h5.921v.843h-4.997v2.796h4.471v.843h-4.471v2.867h5.056v.842h-5.98v-8.19ZM127.88 32.4h-2.75v-.855h6.436v.854h-2.75v7.337h-.936V32.4ZM142.659 31.545h.924v3.64h4.728v-3.64h.924v8.191h-.924v-3.685h-4.728v3.685h-.924v-8.19ZM167.946 35.664v-.023c0-1.86-1.358-3.382-3.23-3.382-1.872 0-3.206 1.498-3.206 3.358v.024c0 1.86 1.357 3.382 3.229 3.382 1.873 0 3.207-1.498 3.207-3.359Zm-7.396 0v-.023c0-2.258 1.697-4.236 4.189-4.236 2.493 0 4.166 1.954 4.166 4.212v.024c0 2.258-1.696 4.236-4.189 4.236-2.493 0-4.166-1.954-4.166-4.213ZM183.064 38.882c2.071 0 3.393-1.404 3.393-3.218v-.023c0-1.814-1.322-3.242-3.393-3.242h-1.92v6.483h1.92Zm-2.844-7.337h2.844c2.574 0 4.353 1.767 4.353 4.072v.024c0 2.305-1.779 4.095-4.353 4.095h-2.844v-8.19Z"/><path d="M45.321 10.229h-4.908v-2.52h12.56v2.52h-4.91v12.957h-2.742V10.23ZM57.617 7.708h2.72v6.435h7.385V7.708h2.72v15.479h-2.72v-6.524h-7.385v6.523h-2.72V7.708ZM76.19 7.708h11.477v2.432h-8.756v4.025h7.761v2.432h-7.761v4.157h8.867v2.432H76.19V7.708ZM100.139 20.933l1.636-1.946c1.482 1.282 2.963 2.012 4.887 2.012 1.681 0 2.742-.774 2.742-1.946v-.044c0-1.106-.619-1.703-3.494-2.366-3.294-.796-5.151-1.77-5.151-4.621v-.045c0-2.653 2.211-4.489 5.284-4.489 2.256 0 4.047.686 5.617 1.946l-1.46 2.057c-1.393-1.04-2.786-1.592-4.201-1.592-1.592 0-2.521.818-2.521 1.835v.044c0 1.194.708 1.725 3.671 2.433 3.272.796 4.975 1.967 4.975 4.533v.044c0 2.897-2.277 4.621-5.528 4.621-2.366 0-4.599-.818-6.457-2.476ZM117.1 7.708h2.897l4.71 7.32 4.71-7.32h2.896v15.479h-2.72v-11.1l-4.886 7.296h-.089l-4.843-7.252v11.055H117.1V7.708ZM164.001 15.381c1.946 0 3.184-1.017 3.184-2.587v-.045c0-1.658-1.194-2.564-3.206-2.564h-3.958v5.196h3.98Zm-6.7-7.673h6.899c1.946 0 3.472.575 4.467 1.548.818.84 1.282 1.99 1.282 3.339v.044c0 2.543-1.525 4.069-3.692 4.688l4.179 5.86h-3.206l-3.804-5.396h-3.405v5.395h-2.72V7.708ZM178.795 10.229h-4.909v-2.52h12.56v2.52h-4.909v12.957h-2.742V10.23ZM199.492 7.708h11.521v2.477h-8.801v4.223h7.806v2.477h-7.806v6.301h-2.72V7.708ZM215.922 7.708h2.72v15.479h-2.72V7.707ZM228.349 10.229h-4.909v-2.52H236v2.52h-4.909v12.957h-2.742V10.23Z"/><mask id="cc" style="mask-type:luminance" maskUnits="userSpaceOnUse" x="136" y="7" width="17" height="17"><path d="M142.111 17.037h-.002l2.654-6.191 2.675 6.191h-.006l2.649 6.148h2.797l-6.811-15.59h-2.52l-6.811 15.59h2.743l2.632-6.148Z"/></mask><g mask="url(#cc)"><path d="M142.111 17.037h-.002l2.654-6.191 2.675 6.191h-.006l2.649 6.148h2.797l-6.811-15.59h-2.52l-6.811 15.59h2.743l2.632-6.148Z"/></g><defs><linearGradient id="cb" x1="19.354" y1="5.614" x2="12.369" y2="44.031" gradientUnits="userSpaceOnUse"><stop stop-color="#F68615"/><stop offset="1" stop-color="#F14721"/></linearGradient><linearGradient id="cd" x1="144.807" y1="8.451" x2="144.807" y2="24.133" gradientUnits="userSpaceOnUse"><stop stop-color="#F68615"/><stop offset="1" stop-color="#F14721"/></linearGradient></defs></symbol><symbol viewBox="0 0 20 21" id="play-button" xmlns="http://www.w3.org/2000/svg"><circle cx="10" cy="10.5" r="9" stroke-width="2"/><path d="m9.249 9.199 2.25 1.299-2.25 1.3V9.198Z" stroke-width="2.5"/></symbol></svg>