<svg width="236" height="41" viewBox="0 0 236 41" fill="none" xmlns="http://www.w3.org/2000/svg">
<mask id="mask0_851_20516" style="mask-type:luminance" maskUnits="userSpaceOnUse" x="0" y="8" width="30" height="33">
<path d="M12.8063 12.4401L19.9252 14.268C19.9635 14.2662 20.0024 14.2698 20.0407 14.2781C20.0905 14.2888 20.1372 14.3077 20.1794 14.3331L25.5361 15.7085L15.8643 9.66908L12.8063 12.4401ZM12.1825 13.2243L9.87661 20.4972L11.8078 22.3648L19.046 14.9866L12.1825 13.2243ZM1.64231 22.5563L10.6963 22.5623L9.03714 20.9577C8.91217 20.8371 8.86646 20.6562 8.91905 20.4908L10.9335 14.137L1.64231 22.5563ZM12.9595 23.4786L19.242 29.5543L20.364 23.4835L12.9595 23.4786ZM11.8247 23.6537L10.5726 24.9302L18.7541 32.1944L19.0425 30.6339L11.8247 23.6537ZM12.894 22.5637L20.9139 22.5692C21.0496 22.5694 21.1784 22.6297 21.2653 22.7342C21.352 22.8386 21.388 22.9762 21.3633 23.1098L20.0311 30.3176L27.8159 37.846L19.7606 15.5645L12.894 22.5637ZM28.5994 39.8762L19.8317 31.3971L19.5062 33.1578C19.4762 33.32 19.3611 33.4534 19.2051 33.5071C19.0491 33.5609 18.8762 33.5261 18.7527 33.4167L9.60567 25.295C9.51212 25.2119 9.45652 25.094 9.45229 24.9688C9.44787 24.8437 9.49518 24.7223 9.5829 24.6328L10.7166 23.477L0.457057 23.4701C0.268017 23.4699 0.0985656 23.3536 0.0306099 23.1773C-0.0373459 23.0009 0.0101397 22.8008 0.150287 22.6739L15.5063 8.75918C15.6578 8.62185 15.8821 8.60173 16.0556 8.71011L28.529 16.4991C28.7203 16.6186 28.7958 16.8597 28.7071 17.0671C28.6183 17.2745 28.3916 17.3862 28.173 17.3299L20.6756 15.4051L29.3474 39.3919C29.4198 39.5922 29.3444 39.8158 29.1658 39.9315C29.0897 39.9807 29.0033 40.0049 28.9175 40.0049C28.8019 40.0049 28.6871 39.9611 28.5994 39.8762Z" fill="white"/>
</mask>
<g mask="url(#mask0_851_20516)">
<path d="M12.8063 12.4401L19.9252 14.268C19.9635 14.2662 20.0024 14.2698 20.0407 14.2781C20.0905 14.2888 20.1372 14.3077 20.1794 14.3331L25.5361 15.7085L15.8643 9.66908L12.8063 12.4401ZM12.1825 13.2243L9.87661 20.4972L11.8078 22.3648L19.046 14.9866L12.1825 13.2243ZM1.64231 22.5563L10.6963 22.5623L9.03714 20.9577C8.91217 20.8371 8.86646 20.6562 8.91905 20.4908L10.9335 14.137L1.64231 22.5563ZM12.9595 23.4786L19.242 29.5543L20.364 23.4835L12.9595 23.4786ZM11.8247 23.6537L10.5726 24.9302L18.7541 32.1944L19.0425 30.6339L11.8247 23.6537ZM12.894 22.5637L20.9139 22.5692C21.0496 22.5694 21.1784 22.6297 21.2653 22.7342C21.352 22.8386 21.388 22.9762 21.3633 23.1098L20.0311 30.3176L27.8159 37.846L19.7606 15.5645L12.894 22.5637ZM28.5994 39.8762L19.8317 31.3971L19.5062 33.1578C19.4762 33.32 19.3611 33.4534 19.2051 33.5071C19.0491 33.5609 18.8762 33.5261 18.7527 33.4167L9.60567 25.295C9.51212 25.2119 9.45652 25.094 9.45229 24.9688C9.44787 24.8437 9.49518 24.7223 9.5829 24.6328L10.7166 23.477L0.457057 23.4701C0.268017 23.4699 0.0985656 23.3536 0.0306099 23.1773C-0.0373459 23.0009 0.0101397 22.8008 0.150287 22.6739L15.5063 8.75918C15.6578 8.62185 15.8821 8.60173 16.0556 8.71011L28.529 16.4991C28.7203 16.6186 28.7958 16.8597 28.7071 17.0671C28.6183 17.2745 28.3916 17.3862 28.173 17.3299L20.6756 15.4051L29.3474 39.3919C29.4198 39.5922 29.3444 39.8158 29.1658 39.9315C29.0897 39.9807 29.0033 40.0049 28.9175 40.0049C28.8019 40.0049 28.6871 39.9611 28.5994 39.8762Z" fill="url(#paint0_linear_851_20516)"/>
</g>
<path d="M18.0059 4.03202C18.0059 6.2585 19.8108 8.06348 22.0373 8.06348C24.2638 8.06348 26.0688 6.2585 26.0688 4.03202C26.0688 1.80555 24.2638 0.000571251 22.0373 0.000571251C19.8108 0.000571251 18.0059 1.80555 18.0059 4.03202Z" fill="white"/>
<path d="M18.7349 14.9211C18.7349 15.5083 19.2109 15.9844 19.7982 15.9844C20.3854 15.9844 20.8614 15.5083 20.8614 14.9211C20.8614 14.3338 20.3854 13.8578 19.7982 13.8578C19.2109 13.8578 18.7349 14.3338 18.7349 14.9211Z" fill="white"/>
<path d="M10.7515 23.0695C10.7515 23.6568 11.2275 24.1328 11.8148 24.1328C12.402 24.1328 12.878 23.6568 12.878 23.0695C12.878 22.4823 12.402 22.0062 11.8148 22.0062C11.2275 22.0062 10.7515 22.4823 10.7515 23.0695Z" fill="white"/>
<path d="M18.3467 30.2795C18.3467 30.8667 18.8227 31.3428 19.41 31.3428C19.9972 31.3428 20.4733 30.8667 20.4733 30.2795C20.4733 29.6922 19.9972 29.2162 19.41 29.2162C18.8227 29.2162 18.3467 29.6922 18.3467 30.2795Z" fill="white"/>
<path d="M10.5854 12.926C10.5854 13.5132 11.0615 13.9893 11.6487 13.9893C12.236 13.9893 12.712 13.5132 12.712 12.926C12.712 12.3387 12.236 11.8627 11.6487 11.8627C11.0615 11.8627 10.5854 12.3387 10.5854 12.926Z" fill="white"/>
<path d="M74.3945 35.8324C74.3945 36.9373 75.2903 37.833 76.3952 37.833C77.5001 37.833 78.3958 36.9373 78.3958 35.8324C78.3958 34.7274 77.5001 33.8317 76.3952 33.8317C75.2903 33.8317 74.3945 34.7274 74.3945 35.8324Z" fill="#E2E2E2"/>
<path d="M198.017 35.8324C198.017 36.9373 198.912 37.833 200.017 37.833C201.122 37.833 202.018 36.9373 202.018 35.8324C202.018 34.7274 201.122 33.8317 200.017 33.8317C198.912 33.8317 198.017 34.7274 198.017 35.8324Z" fill="#E2E2E2"/>
<path d="M88.9961 31.5452H89.9324L92.9163 36.0154L95.9001 31.5452H96.8364V39.7363H95.9119V33.1017L92.9281 37.4896H92.8811L89.8973 33.1132V39.7363H88.9961V31.5452Z" fill="#E2E2E2"/>
<path d="M108.514 31.5452H114.435V32.3876H109.438V35.1844H113.909V36.0272H109.438V38.8939H114.494V39.7363H108.514V31.5452Z" fill="#E2E2E2"/>
<path d="M127.88 32.3994H125.13V31.5452H131.566V32.3994H128.816V39.7363H127.88V32.3994Z" fill="#E2E2E2"/>
<path d="M142.659 31.5452H143.583V35.1844H148.311V31.5452H149.235V39.7363H148.311V36.0505H143.583V39.7363H142.659V31.5452Z" fill="#E2E2E2"/>
<path d="M167.946 35.6644V35.6411C167.946 33.7806 166.588 32.2591 164.716 32.2591C162.844 32.2591 161.51 33.757 161.51 35.6174V35.6411C161.51 37.5015 162.867 39.0227 164.739 39.0227C166.612 39.0227 167.946 37.5249 167.946 35.6644ZM160.55 35.6644V35.6411C160.55 33.3825 162.247 31.4049 164.739 31.4049C167.232 31.4049 168.905 33.3592 168.905 35.6174V35.6411C168.905 37.8993 167.209 39.877 164.716 39.877C162.223 39.877 160.55 37.9229 160.55 35.6644Z" fill="#E2E2E2"/>
<path d="M183.064 38.8821C185.135 38.8821 186.457 37.4781 186.457 35.6642V35.6409C186.457 33.827 185.135 32.3994 183.064 32.3994H181.144V38.8821H183.064ZM180.22 31.5452H183.064C185.638 31.5452 187.417 33.3121 187.417 35.6173V35.6409C187.417 37.9461 185.638 39.7363 183.064 39.7363H180.22V31.5452Z" fill="#E2E2E2"/>
<path d="M45.3214 10.2288H40.4126V7.70808H52.9723V10.2288H48.0634V23.1865H45.3214V10.2288Z" fill="white"/>
<path d="M57.6167 7.70808H60.3366V14.1426H67.7219V7.70808H70.4415V23.1865H67.7219V16.6633H60.3366V23.1865H57.6167V7.70808Z" fill="white"/>
<path d="M76.1909 7.70808H87.6672V10.1404H78.9108V14.1647H86.6721V16.597H78.9108V20.7542H87.7776V23.1865H76.1909V7.70808Z" fill="white"/>
<path d="M100.139 20.9327L101.775 18.9868C103.257 20.2694 104.738 20.999 106.662 20.999C108.343 20.999 109.404 20.2252 109.404 19.0531V19.0089C109.404 17.9034 108.785 17.3064 105.91 16.6429C102.616 15.847 100.759 14.8738 100.759 12.0216V11.9771C100.759 9.32384 102.97 7.48846 106.043 7.48846C108.299 7.48846 110.09 8.17412 111.66 9.43433L110.2 11.4907C108.807 10.4514 107.414 9.89869 105.999 9.89869C104.407 9.89869 103.478 10.7169 103.478 11.734V11.7782C103.478 12.9725 104.186 13.5031 107.149 14.2106C110.421 15.0067 112.124 16.1785 112.124 18.7437V18.7879C112.124 21.6846 109.847 23.4092 106.596 23.4092C104.23 23.4092 101.997 22.5909 100.139 20.9327Z" fill="white"/>
<path d="M117.1 7.70808H119.997L124.707 15.0271L129.417 7.70808H132.313V23.1865H129.593V12.0862L124.707 19.3832H124.618L119.775 12.1305V23.1865H117.1V7.70808Z" fill="white"/>
<path d="M164.001 15.381C165.947 15.381 167.185 14.3639 167.185 12.7937V12.7495C167.185 11.0912 165.991 10.1846 163.979 10.1846H160.021V15.381H164.001ZM157.301 7.70808H164.2C166.146 7.70808 167.672 8.28293 168.667 9.25586C169.485 10.0962 169.949 11.2459 169.949 12.5948V12.639C169.949 15.1818 168.424 16.7075 166.257 17.3269L170.436 23.1865H167.23L163.426 17.7909H160.021V23.1865H157.301V7.70808Z" fill="white"/>
<path d="M178.795 10.2288H173.886V7.70808H186.446V10.2288H181.537V23.1865H178.795V10.2288Z" fill="white"/>
<path d="M199.492 7.70808H211.013V10.1846H202.212V14.4081H210.018V16.8846H202.212V23.1865H199.492V7.70808Z" fill="white"/>
<path d="M215.922 7.70808H218.642V23.1865H215.922V7.70808Z" fill="white"/>
<path d="M228.349 10.2288H223.44V7.70808H236V10.2288H231.091V23.1865H228.349V10.2288Z" fill="white"/>
<mask id="mask1_851_20516" style="mask-type:luminance" maskUnits="userSpaceOnUse" x="136" y="7" width="17" height="17">
<path d="M142.111 17.0373H142.109L144.763 10.8459L147.438 17.0373H147.432L150.081 23.1846H152.878L146.067 7.59534H143.547L136.736 23.1846H139.479L142.111 17.0373Z" fill="white"/>
</mask>
<g mask="url(#mask1_851_20516)">
<path d="M142.111 17.0373H142.109L144.763 10.8459L147.438 17.0373H147.432L150.081 23.1846H152.878L146.067 7.59534H143.547L136.736 23.1846H139.479L142.111 17.0373Z" fill="url(#paint1_linear_851_20516)"/>
</g>
<defs>
<linearGradient id="paint0_linear_851_20516" x1="19.3541" y1="5.61362" x2="12.369" y2="44.0314" gradientUnits="userSpaceOnUse">
<stop stop-color="#F68615"/>
<stop offset="1" stop-color="#F14721"/>
</linearGradient>
<linearGradient id="paint1_linear_851_20516" x1="144.807" y1="8.45142" x2="144.807" y2="24.1326" gradientUnits="userSpaceOnUse">
<stop stop-color="#F68615"/>
<stop offset="1" stop-color="#F14721"/>
</linearGradient>
</defs>
</svg>
