<svg width="28" height="28" viewBox="0 0 28 28" fill="none" xmlns="http://www.w3.org/2000/svg">
<circle cx="26" cy="26" r="2" transform="rotate(90 26 26)" fill="#636479"/>
<circle cx="18" cy="26" r="2" transform="rotate(90 18 26)" fill="#636479"/>
<circle cx="10" cy="26" r="2" transform="rotate(90 10 26)" fill="#636479"/>
<circle cx="2" cy="26" r="2" transform="rotate(90 2 26)" fill="#636479"/>
<circle cx="26" cy="18" r="2" transform="rotate(90 26 18)" fill="#636479"/>
<circle cx="26" cy="10" r="2" transform="rotate(90 26 10)" fill="#636479"/>
<circle cx="26" cy="2" r="2" transform="rotate(90 26 2)" fill="#636479"/>
<circle cx="10" cy="18" r="2" transform="rotate(90 10 18)" fill="#636479"/>
<circle cx="18" cy="2" r="2" transform="rotate(90 18 2)" fill="#636479"/>
<circle cx="2" cy="11" r="2" transform="rotate(90 2 11)" fill="#636479"/>
<circle cx="9" cy="2" r="2" transform="rotate(90 9 2)" fill="#636479"/>
<circle cx="19" cy="10" r="2" transform="rotate(90 19 10)" fill="#636479"/>
</svg>
